<?xml version="1.0" encoding="UTF-8"?>
<svg id="Capa_2" data-name="Capa 2" xmlns="http://www.w3.org/2000/svg" viewBox="0 0 393.11 81.74">
  <defs>
    <style>
      .cls-1 {
        fill: #616160;
      }
    </style>
  </defs>
  <g id="Layer_3" data-name="Layer 3">
    <g>
      <path id="path2235" class="cls-1" d="M41.53,81.7c-.51-.1-.82-.32-1.43-1.03-.6-.7-.89-.95-1.4-1.21-.31-.15-.61-.16-.61,0,0,.04.12.25.27.47.27.39.32.53.21.6-.08.04-1.74-.14-2.08-.24-.15-.04-.46-.18-.69-.31-.23-.13-.59-.29-.8-.37s-.5-.21-.64-.31c-.25-.17-.26-.17-.36-.05-.06.07-.21.37-.34.67-.2.44-.24.63-.23,1.02,0,.46,0,.49-.19.55-.3.11-.71-.1-1.13-.55-.19-.21-.39-.38-.45-.38s-.25.06-.44.14c-.23.09-.64.16-1.18.21-.95.07-1.22.18-1.41.55-.36.7-.73-.33-.39-1.08.07-.16.43-.57.8-.92.82-.79.92-.92.92-1.25,0-.37-.24-.63-.58-.63-.32,0-1.46.6-2.02,1.06-.25.21-.42.29-.59.29-.13,0-.58.07-1,.15-.74.15-.78.16-1.04.46-.15.17-.3.31-.33.31s-.18-.09-.33-.2c-.24-.18-.35-.21-.98-.24-.6-.04-.78-.02-1.18.11l-.47.15-.29-.26c-.19-.17-.66-.41-1.37-.7l-1.08-.44-.17-.4c-.29-.69-.61-1.2-.81-1.3-.34-.17-1.77-.11-2.42.09-.47.15-.55.2-.69.45-.19.34-.34.38-.63.18-.2-.13-.33-.15-1.28-.15s-1.09.01-1.43.18l-.36.18-.27-.19c-.19-.14-.4-.2-.77-.24-.28-.03-.79-.09-1.13-.15-.48-.07-.67-.07-.82,0-.37.16-.55.11-.79-.23-.23-.31-.59-.5-.8-.42-.06.02-.2.25-.3.51-.35.86-.42.9-1.3.64l-.51-.15-.22.2c-.27.24-.32.38-.22.62.06.15.05.21-.07.33-.24.22-.31.19-.78-.37-.37-.44-.37-.61,0-.67.4-.07.53-.14.67-.39.13-.23.08-.37-.28-.79-.16-.19-.16-.2-.03-.51.15-.37.49-.67,1.04-.93.62-.29.68-.68.14-.85-.46-.14-.47-.27-.05-.89.14-.21.17-.35.17-.93,0-.77.04-.85.48-.97.27-.08,1.23-.69,1.35-.87.1-.15-.04-.42-.44-.82-.42-.43-.74-.6-1.13-.6-.34,0-.51-.11-.6-.38-.13-.36-1.01-.97-1.4-.97-.23,0-.38-.19-.5-.62-.11-.4-.69-1.11-.99-1.23-.3-.12-.38-.3-.29-.67.1-.41,0-1.31-.18-1.57-.2-.31-.19-.55.04-.65.19-.08.39-.38.51-.75.09-.29-.03-.45-.66-.83C.25,60.88,0,60.6,0,60.38c0-.05.14-.28.3-.52.17-.23.3-.5.3-.59,0-.22-.13-.44-.27-.44-.06,0-.15-.07-.2-.15-.07-.12-.06-.19.06-.34.19-.24.68-.5.94-.51.36,0,.43.18.26.67-.09.28.12.41.76.47.75.07.84.14.94.84.05.34.12.56.2.61.15.1,1.3.27,1.41.2.04-.02.08-.16.08-.31,0-.71.43-1.39,1.04-1.64.19-.08.59-.31.88-.51.6-.41.9-.51,1.24-.43.3.07.43.32.4.74-.05.53-.02.54.87.34.65-.14.86-.22,1.21-.47.53-.37.74-.45,1.22-.45.67,0,1.21.39,1.21.87,0,.09-.07.27-.15.4-.13.2-.19.23-.4.21-.19-.02-.27-.08-.4-.31-.16-.29-.42-.39-.65-.25-.09.05-.06.14.18.47.21.3.31.54.39.92.07.38.15.57.3.72.11.11.22.27.25.34.02.08.2.29.38.47.19.18.55.66.81,1.06.5.77.67.94.85.82.06-.04.46-.29.89-.57.48-.31.86-.6.98-.77.11-.15.48-.54.82-.87.59-.56.64-.59.95-.59.55,0,.94.23,1.24.74.25.41.3.45.86.7.64.28.86.47,2.03,1.75.33.36.72.74.86.84l.26.19.22-.2c.12-.11.28-.31.35-.45.18-.36.61-.84.87-.97.13-.06.43-.11.73-.11.33,0,.73-.06,1.13-.18.6-.17.67-.18,1.54-.12.75.06.98.1,1.33.26.47.22,1.32.95,1.73,1.49.66.85.9,1.06,1.96,1.71.99.61,2.21,1.16,3.54,1.62.62.21,1.47.34,2.31.34.82,0,.83,0,1.33-.28.88-.48,1.29-.61,1.88-.62.69,0,.92.09,2.42,1.01,1.21.74,1.49.87,1.94.87.34,0,.48-.16.48-.54,0-.26.05-.36.25-.58.14-.15.4-.52.59-.82.79-1.31,1.69-2.18,2.7-2.64.42-.19.69-.26,1.3-.32.42-.04.82-.09.89-.11.2-.06.81-.86.87-1.15.08-.39.16-.49.43-.55.14-.03.42-.14.64-.25.21-.11.47-.21.58-.21.21,0,1.72,1,1.79,1.18.03.06,0,.21-.05.34-.25.57-.4,1.03-.44,1.37-.04.36-.05.38-.39.52-.19.08-.43.19-.53.23-.24.11-.36.39-.42,1.01-.03.27-.12.79-.19,1.14-.08.35-.12.74-.1.87.06.37-.02.54-.38.71-.34.17-.8.69-1.28,1.46-.24.39-.34.47-1.06.87-.57.32-.95.48-1.36.57-.35.08-.68.2-.84.32-.15.11-.51.34-.79.52-.78.49-.88.81-.27.81.48,0,.87-.12,1.15-.36.21-.17.3-.2.52-.17.39.06,1.23-.32,1.64-.73.32-.32.33-.33.71-.28.36.04.41.02.81-.24.39-.25.48-.28.89-.28.36,0,.53-.04.77-.18.17-.1.41-.18.55-.18.36,0,.61-.14.7-.37.04-.11.15-.76.24-1.43.09-.67.23-1.37.3-1.54.07-.18.26-.59.41-.92.15-.33.27-.7.27-.82,0-.15.08-.28.24-.43.13-.11.57-.63.99-1.14.7-.86.81-.96,1.35-1.26.33-.18.64-.33.69-.33s.53-.16,1.06-.35c1.9-.69,3.14-.64,4.55.17.5.29,1.1.29,1.74.02.5-.21,1.42-1.01,1.42-1.23,0-.16-.21-.27-.63-.35-.14-.03-.36-.12-.48-.21-.18-.13-.22-.22-.21-.44,0-.15.08-.41.16-.58.22-.45.08-.73-.41-.85-.33-.08-.32-.3.05-.6.17-.14.36-.26.41-.26s.14.13.19.31c.13.5.27.57.98.5.97-.1,1.17-.02,1.33.48.17.52.19.52,1.37-.17.36-.21.87-.46,1.12-.55l.46-.16v-.36c0-.48.12-.85.35-1.1.27-.3.45-.33.88-.14.43.19.69.13.84-.18.07-.15.06-.23-.09-.47-.14-.24-.16-.32-.09-.46.11-.22.28-.22.64.01.16.1.43.23.6.29.39.13.52.22.52.39,0,.15-.22.28-.48.28-.29,0-.43.07-.55.29-.16.29-.14.39.16.76.35.43.35.68,0,1.07-.15.16-.32.3-.37.3-.14,0-.43.31-.43.47,0,.08.07.36.16.63.21.67.21,1.31,0,1.83-.42,1.02-2.24,2.29-3.85,2.68-.48.12-.99.16-2.38.21-2.02.07-2.03.07-2.35.66-.5.92-1.63,2.02-2.62,2.52-.23.12-1.04.41-1.79.66-.75.24-1.59.55-1.87.67-.94.44-1.68,1.06-1.68,1.41,0,.2.6.54.94.54.7,0,2.57-.34,3.97-.72,1.11-.3,1.99-.42,3.05-.42.82,0,1.03.03,1.72.22.43.12,1.05.24,1.36.27l.57.05.21.38c.11.21.36.57.54.82.18.24.4.55.47.69.07.14.23.32.35.41.23.17.28.41.14.65-.04.07-.13.37-.19.65-.06.29-.19.74-.29,1.02-.14.41-.22.51-.4.59-.13.05-.37.22-.53.36-.44.38-.53.42-.93.34-.44-.09-1.15.04-1.64.29-.25.13-.4.16-.47.12-.46-.32-.55-.35-1.03-.38-.36-.02-.58,0-.75.09-.35.17-.45.15-.81-.2-.42-.41-.68-.5-1.04-.39-.15.05-.37.07-.5.06-.21-.02-.23-.05-.26-.34-.03-.27-.08-.35-.37-.56-.29-.2-.39-.24-.69-.22-.28.01-.41-.02-.62-.16-.31-.22-.69-.34-1.03-.34-.28,0-.49.22-.67.7-.1.28-.6,1.07-.92,1.45-.09.11-.57.39-1.15.67-1.8.86-2.46,1.02-4.07,1.02-1.33,0-2.01-.11-3.96-.65-1.57-.43-2.31-.55-3.45-.56-.29,0-.58.03-.65.07-.07.04-.28.24-.45.46-.17.22-.64.63-1.04.93-.65.48-.72.55-.64.68.15.27.68.55,1.27.68.6.13.72.23.55.43-.39.44-1.82.56-2.73.22-.27-.1-.75-.3-1.06-.44-.31-.14-.59-.24-.63-.21-.04.02.02.17.12.34.1.16.17.33.14.38-.08.12-.47.16-.84.09ZM44.03,80.82s-.25-.23-.56-.48c-.31-.25-.87-.69-1.24-.98-.84-.66-1.8-1.14-2.8-1.38-.75-.18-1.66-.24-1.86-.12-.14.08-.21.72-.09.79.05.03.23.04.38.02.3-.04.88.11,1.4.35.43.2.98.7,1.35,1.24.48.68.65.56.52-.36-.02-.15,0-.22.1-.23.07-.01.69.25,1.37.58,1.13.55,1.44.67,1.44.58ZM33.01,79.95c.26-.84.38-1.6.32-1.94-.06-.33-.36-.79-.65-1.03-.13-.1-.83-.46-1.55-.79-1.15-.52-1.36-.65-1.7-.99-.48-.48-.85-1.17-.85-1.54,0-.25.02-.27.14-.21.08.04.27.28.44.54.51.81,1.29,1.33,3,2.01,1.11.44,1.66.76,2.26,1.31.58.53.73.57.86.23.2-.48-.1-1.06-.78-1.53-.7-.49-.76-.5-1.79-.56-.81-.04-.96-.07-1.05-.18-.06-.07-.09-.17-.08-.21.09-.26,1.24-.4,2.05-.25.9.16,1.58.62,2.22,1.49.17.23.23.41.26.72.04.53-.16.94-.66,1.36-.43.36-.51.52-.33.62.16.08.58-.04.92-.27.42-.28.64-.62.73-1.13l.08-.47h.72c.88-.01,1.26-.08,1.32-.22.07-.18-.02-.24-.36-.24-.45,0-.7-.17-1.5-1.02-1.23-1.3-1.84-1.48-4.25-1.18-.6.07-.82.07-1.42-.03-1.45-.23-2.13-.63-2.37-1.43-.16-.52-.12-1.18.1-1.45.55-.69,1.59-.74,2.12-.1.21.26.33.27.42.04.08-.21-.17-.66-.49-.86-.28-.18-.88-.27-1.3-.2-.36.06-.99.54-1.28.95-.37.54-.55,1.21-.49,1.77.12,1.05.56,1.89,1.78,3.37,1.18,1.45,1.21,1.9.18,3.01-.26.28-.47.54-.47.58,0,.14.32.24.66.2.66-.08,1.09-.4,1.44-1.04.1-.19.13-.4.12-.93-.01-.72.07-.91.33-.82.27.1.36.53.37,1.72,0,.85.04,1.17.11,1.26.06.06.13.12.15.12s.14-.31.26-.69ZM37.4,79.76c0-.06-.12-.22-.27-.36-.3-.28-.65-.33-.92-.14-.14.1-.14.11.07.28.37.29,1.11.44,1.11.22ZM44.7,79.04c.85-.39,1.18-.8,1.08-1.31-.11-.53-.08-1.04.08-1.42.19-.46.2-.97,0-1.23-.45-.63-1.69-1.13-2.85-1.13h-.6s-1.73.81-1.73.81c-.95.45-1.84.86-1.98.9-.38.12-.29.3.25.49.9.32.9.31.76.95l-.06.26.43.12c.4.11.45.11.77,0,.49-.18.76-.06.9.38.09.31.16.37.94.89.83.55.84.56,1.21.52.21-.02.56-.13.79-.23ZM43.81,77.84c-.15-.17.09-.47.38-.47.04,0,.1.06.15.14.18.31-.29.59-.53.32ZM43.33,76.87c-.15-.08-.18-.42-.04-.55.05-.05.16-.09.25-.09.35,0,.47.41.17.6-.2.13-.21.13-.38.03ZM41.08,76.47c-.13-.05-.12-.41.02-.52.25-.19.6.15.47.46-.04.1-.29.13-.49.06ZM44.25,75.82c-.12-.11-.22-.26-.22-.32,0-.13.33-.46.46-.46.05,0,.17.08.27.17.24.22.26.64.04.75-.22.11-.3.09-.54-.13ZM41.74,75.1c-.23-.22-.16-.43.17-.55.39-.14.52-.08.52.26,0,.23-.03.29-.19.36-.26.11-.31.11-.5-.06ZM24.77,78.62c.62-.1,2.05-.6,2.9-1.01.61-.3,1.12-.73,1.12-.96,0-.09-.19-.46-.42-.83-.25-.4-.51-.96-.65-1.37-.17-.5-.28-.72-.41-.8-.26-.16-2.51-.85-3.09-.95-.27-.05-.99-.11-1.59-.14-1.28-.07-1.86,0-2.71.38-.71.31-1.02.63-1.33,1.43-.34.87-.31,1.32.15,2.19.42.78.86,1.23,1.56,1.55.54.25,1.4.52,2.02.62.43.07,1.67.02,2.45-.11ZM23.34,77.77c-.25-.36.12-.94.49-.75.34.17.4.54.14.77-.23.2-.48.2-.63-.02ZM20.3,77.04c-.2-.28-.08-.55.26-.58.46-.04.63.32.29.61-.23.2-.39.19-.55-.04ZM26.09,75.98c-.08-.08-.12-.21-.1-.41.02-.24.06-.31.24-.39.19-.09.24-.08.42.04.29.2.29.39,0,.65-.27.25-.39.27-.57.11ZM22.88,75.91c-.28-.13-.36-.29-.26-.54.14-.35.48-.31.98.11.2.17.22.28.05.43-.15.14-.46.14-.77,0ZM23.51,74.8c-.23-.3-.09-.77.26-.86.22-.05.61.26.61.49s-.32.52-.56.52c-.11,0-.24-.07-.31-.16ZM20.27,74.44c-.15-.26-.08-.56.16-.68.49-.26.92.37.47.7-.27.2-.52.19-.63-.02ZM56.65,78.48c.55-.1,1.54-.52,2.16-.92,1.07-.68,1.96-1.82,1.68-2.14-.05-.06-.27-.15-.5-.21-.56-.15-.77-.39-.83-.99-.06-.53,0-1.05.16-1.35.14-.25.09-.36-.21-.51-.32-.15-1.68-.15-2.3,0-.77.19-2.41.79-4.06,1.48-1.88.79-2.22.89-4.11,1.25-1.53.29-1.67.35-2.04.84-.25.33-.35.95-.21,1.21.11.2.58.28,1.89.34l1.07.05.2-.3c.17-.24.22-.28.34-.23.22.11.33.27.28.42-.04.1.03.17.28.28.81.38,1.98.71,2.95.84.85.11,2.44.08,3.25-.07ZM54.5,77.9c-.12-.17-.12-.19.01-.32.19-.2.45-.18.56.04.2.4-.31.65-.57.28ZM51.54,77.08c-.3-.34-.26-.46.24-.62.22-.07.27-.06.4.06.19.18.19.43,0,.62-.21.21-.41.19-.64-.06ZM57.01,76.49c-.12-.16-.12-.19,0-.36.16-.22.34-.2.49.05.1.17.1.2-.03.34-.19.19-.32.19-.47-.03ZM53.65,76.36c-.11-.11-.12-.53-.01-.59.15-.09.44.04.55.25.1.19.1.22-.02.32-.16.13-.4.14-.52.03ZM49.83,75.76c-.09-.1-.16-.23-.16-.28,0-.13.44-.46.61-.46.22,0,.4.21.34.41-.14.51-.51.67-.8.33ZM53.33,74.98c-.4-.14-.53-.61-.2-.73.27-.1.48-.02.61.25.15.29.15.32-.01.43-.14.1-.22.11-.4.05ZM56.03,74.27c-.25-.25-.25-.51,0-.57.45-.1.81.32.52.61-.18.19-.31.18-.53-.05ZM69.91,76.94c1.27-.13,1.92-.47,2.39-1.23.51-.82.14-2.06-.89-3-.47-.43-.84-.61-1.67-.82-1.47-.36-3.35-.21-5.6.47-1.05.32-1.46.4-2.45.52-.98.11-1.26.17-1.53.32-.41.23-.59.53-.51.88.09.39.25.47,1.18.56,1.34.13,2.58.52,4.08,1.27,1.37.69,1.97.89,3.13,1.03.72.09,1.06.09,1.88,0ZM68.27,76.19c-.08-.03-.32-.46-.32-.56,0-.01.07-.06.16-.1.12-.06.18-.06.25.03.05.06.16.12.24.13.1.02.16.09.18.23.03.27-.19.4-.5.28ZM70.41,75.8c-.15-.14-.12-.61.04-.69.18-.09.62.15.62.33,0,.29-.47.55-.67.36ZM66.9,74.88c-.17-.16-.11-.41.1-.46.24-.06.51.15.48.36-.03.17-.42.24-.58.1ZM64.54,74.49c-.21-.13-.22-.39-.03-.55.21-.17.38-.14.51.09.15.28.15.41-.03.5-.2.1-.25.09-.45-.04ZM68.65,74.21l-.16-.25.19-.21c.22-.24.37-.27.62-.1.22.15.22.46,0,.66-.26.23-.47.2-.65-.09ZM62.84,73.89c-.4-.19-.49-.32-.39-.53.05-.1.17-.19.28-.22.4-.09.73.45.47.77-.09.11-.12.1-.37-.02ZM66.92,72.86c-.06-.24.07-.54.25-.53.18,0,.45.21.51.4.06.18.01.22-.4.28-.29.04-.32.03-.36-.14ZM5.44,76.36c.25-.33.05-1.08-.31-1.17-.38-.09-1.17.33-1.07.57.07.17.91.75,1.09.75.09,0,.22-.07.29-.16ZM13.65,76.34c.47-.06,1.2-.19,1.62-.29.42-.1,1.07-.2,1.45-.22.38-.02.73-.08.78-.11.05-.04.1-.17.1-.29,0-.12.05-.44.11-.7.06-.27.09-.53.07-.58-.02-.06-.24-.17-.47-.25-.89-.31-1.25-.59-2.49-1.89-.53-.56-1.07-1.06-1.21-1.12-.4-.18-2.2-.54-2.68-.54-.55,0-1,.19-1.23.54-.11.16-.22.24-.3.23-.12-.02-.13-.13-.11-.98l.02-.96-.46-1.24c-.81-2.2-2.39-4.99-3.32-5.86-.68-.64-1.9-.95-2.52-.65-.55.27-.93.84-1.11,1.66-.17.77.12,1.83.72,2.68.4.57,1.47,1.49,2.56,2.21,1.07.71,1.92,1.48,2.24,2.02.31.54.27.63-.47.97-.75.34-1.17.7-1.44,1.24-.18.34-.2.48-.2,1.07,0,.79.1,1.03.71,1.64.37.37,1.23.91,1.97,1.21.73.3,4.03.44,5.68.23ZM11.77,75.44c-.29-.38,0-.83.41-.63.21.1.22.5.02.67-.19.16-.29.15-.43-.04ZM9.27,74.9c-.12-.13-.12-.16-.02-.39.12-.27.24-.31.46-.16.1.07.13.17.11.37-.02.24-.05.28-.22.3-.12.01-.25-.03-.33-.12ZM14.84,74.71c-.11-.23-.03-.51.21-.66.25-.15.33-.05.33.41,0,.24-.03.34-.12.37-.22.08-.34.04-.42-.13ZM7.2,74.37c-.28-.19.1-.75.39-.57.21.12.28.28.22.48-.04.15-.1.19-.26.19-.12,0-.28-.04-.35-.1ZM10.8,74.05c-.21-.23-.23-.31-.1-.45.32-.33.71,0,.52.46-.06.15-.28.14-.43-.01ZM12.76,73.58c-.21-.19-.24-.44-.09-.64.16-.2.45-.12.6.16.14.27.09.45-.17.58-.12.06-.19.04-.34-.1ZM6.88,72.98c-.26-.15-.24-.73.03-.83.14-.05.44.12.55.31.06.11.04.18-.12.36-.2.22-.3.26-.47.16ZM9.98,72.98c-.26-.08-.31-.41-.09-.66.14-.16.15-.16.35-.04.38.23.16.83-.26.7ZM12.04,71.9c-.22-.2-.2-.53.04-.76.24-.22.37-.15.5.26.09.29.04.42-.25.57-.1.05-.18.03-.29-.07ZM7.65,67.58c-.22-.13-.22-.73,0-.73.17,0,.58.35.58.5,0,.21-.37.35-.58.23ZM5.97,67.44c-.18-.11-.27-.37-.18-.51.08-.13.1-.14.36-.03.38.15.43.2.37.42-.04.14-.1.18-.26.18-.11,0-.25-.02-.29-.05ZM3.58,65.86c-.18-.17-.2-.45-.03-.6.15-.14.26-.14.47,0,.22.15.24.56.02.67-.21.1-.29.09-.46-.07ZM5.29,65.41c-.12-.08-.13-.13-.07-.29.11-.29.29-.37.52-.22.33.2.23.62-.15.62-.09,0-.23-.04-.31-.1ZM2.91,63.72c-.12-.12-.11-.28.03-.47.15-.2.35-.2.55,0,.2.2.21.28.03.43-.16.14-.48.15-.61.03ZM4.48,62.87c-.18-.1-.17-.44.01-.59.3-.25.65.2.41.53-.12.16-.22.18-.42.07ZM39.05,74.65c.29-.09.98-.38,1.53-.64.55-.26,1.21-.53,1.46-.61.6-.19,1.36-.19,2.26,0l.69.14.33-.33c.62-.63,1.32-2.31,1.14-2.75-.03-.06-.26-.22-.53-.34-.26-.12-.6-.31-.75-.41-.63-.44-2.16-1.36-2.33-1.4-.35-.08-.91.02-1.52.28-.87.37-1.56.49-2.82.5-.97,0-1.13,0-1.73-.19-.93-.28-.93-.28-.86.2.05.36.04.39-.11.39-.34,0-.85-.68-.85-1.15,0-.14-.53-.47-1.51-.95-1.11-.55-1.93-1.16-2.78-2.09-1.07-1.17-1.2-1.29-1.5-1.41-.37-.15-1.85-.2-2.46-.09-.26.05-.74.11-1.07.14-.41.04-.65.1-.75.19-.12.1-.93,1.29-1.05,1.54-.01.03.03.12.11.2.1.11.24.14.57.14.59,0,.67-.04.84-.4.1-.21.19-.31.29-.31.14,0,.32.26.32.47,0,.32.67.88.95.79.06-.02.11-.22.14-.54.04-.5.14-.72.33-.72.16,0,.21.21.25,1.09l.04.84.43.31c.24.17.97.59,1.63.92,1.43.73,4.44,2.51,5.37,3.19.92.67,1.74,1.44,2.27,2.13.53.69.89,1.05,1.04,1.05.06,0,.35-.08.64-.17ZM42.32,72.61c-.28-.29-.32-.44-.1-.48.17-.03.59.39.59.6,0,.25-.17.21-.49-.12ZM43.82,72.51c-.32-.25-.61-.79-.51-.94.13-.19.24-.19.46.03.28.28.64.88.59.99-.06.15-.29.12-.54-.08ZM36.41,71.89c-.25-.32-.27-.5-.05-.54.16-.03.4.16.56.44.26.47-.16.56-.51.1ZM38.18,71.38c-.53-.54-.76-1.11-.45-1.11s.96.79.96,1.19c0,.32-.14.3-.52-.08ZM44.71,71.25c-.43-.5-.63-.89-.57-1.1.07-.28.25-.2.65.31.4.5.58.88.51,1.05-.08.19-.27.11-.58-.26ZM39.43,70.96c-.36-.57-.43-.88-.23-.95.26-.09.72.56.72,1.02,0,.35-.25.31-.49-.07ZM41.2,70.79c-.32-.36-.47-.73-.4-1,.1-.36.55-.07.72.47.16.49-.05.83-.32.52ZM42.32,69.97c-.13-.18-.16-.55-.04-.55.1,0,.38.43.38.59,0,.17-.2.15-.34-.03ZM32.59,69.59c-.37-.19-.48-.53-.17-.53.23,0,.59.31.55.48-.03.16-.14.18-.38.05ZM33.78,69.25c-.53-.49-.38-.81.21-.43.36.24.56.48.49.63-.08.2-.37.11-.71-.2ZM28.83,66.93c-.07-.12-.14-.4-.17-.61-.04-.35-.03-.38.12-.38.24,0,.41.3.42.76,0,.33-.02.41-.12.43-.08.02-.17-.06-.25-.2ZM30.33,66.71c-.39-.51-.39-1.04,0-.84.18.09.53.75.5.94-.04.26-.26.22-.51-.1ZM47.21,74.58c.09-.04.35-.32.57-.62.89-1.21,1.06-1.34,2.44-1.88.45-.18,1-.43,1.22-.57,1.48-.92,2.95-2.71,3.21-3.9.12-.55.1-.64-.28-.98l-.3-.27.36-.27c1.14-.86,1.59-1.39,1.68-1.96.09-.63-.4-1.13-1.01-1.02-.46.08-1.09.72-1.2,1.22-.04.18-.01.27.14.44.27.29.24.41-.1.54-.16.06-.36.19-.45.29-.24.28-.45.24-.56-.11-.12-.37-.31-.45-1.07-.39-.75.05-1.05.2-1.81.87-1.35,1.2-2.56,3.41-3.12,5.71-.11.45-.27.76-.73,1.46-.18.28-.33.58-.33.67,0,.19.44.67.74.81.19.09.3.08.61-.06ZM47.86,72.24c-.22-.2-.05-.55.26-.55.2,0,.36.33.25.52-.08.14-.37.16-.51.03ZM50.78,70.77c-.17-.18-.1-.41.15-.52.16-.07.21-.06.35.08.16.15.16.17.05.35-.14.24-.38.28-.56.1ZM48.49,69.7c-.16-.16-.1-.4.11-.5.32-.16.56.16.35.47-.15.21-.28.22-.46.04ZM50.37,69.4c-.13-.06-.17-.13-.15-.26.02-.15.07-.19.3-.2.33-.03.49.12.42.38-.05.2-.25.23-.56.09ZM52.82,69.16c-.11-.26.31-.5.5-.28.07.08.07.14,0,.25-.1.18-.44.2-.51.03ZM49.83,68.18c-.32-.31-.15-.64.31-.6.21.02.26.05.28.22.03.21-.07.37-.29.48-.09.05-.17.02-.29-.1ZM53.31,67.95c-.32-.08-.25-.67.09-.8.27-.11.4-.03.52.28.06.17.05.24-.08.39-.15.17-.26.2-.54.13ZM51.62,67.6c-.26-.24-.1-.55.27-.52.22.02.26.05.28.21.02.13-.03.22-.15.3-.22.14-.25.14-.4,0ZM50.81,66.36c-.23-.41.18-.84.58-.6.24.14.24.39.01.6-.22.19-.48.2-.59,0ZM55.14,64.25c-.1-.03-.13-.11-.13-.38,0-.31.02-.36.19-.43.17-.07.22-.06.38.09s.18.2.1.41c-.07.19-.29.39-.39.36-.01,0-.08-.02-.16-.04ZM36.49,74.04c0-.12-.96-1.07-1.75-1.74-.43-.36-1.03-.78-1.39-.97-.95-.5-.9-.51-.9.05,0,.34-.05.55-.16.76-.39.72-1.48.76-1.78.07-.21-.5-.53-.56-.76-.14-.27.5-.04,1.17.5,1.4.66.29,1.07.33,2.53.27,1.94-.08,2.3-.06,2.99.17.69.24.7.24.7.15ZM18.48,73.03c.12-.12.45-.37.72-.55.27-.18.51-.34.53-.35.02-.01-.02-.08-.09-.15-.19-.2-.23-.44-.14-.76.1-.35.33-.52.5-.39.08.06.11.24.11.6,0,.28.02.53.04.55s.27,0,.55-.06c.28-.05.64-.09.79-.1.38,0,.66-.23.72-.57.05-.3.22-.49.33-.38.04.04.12.19.17.35.12.31.26.37.96.41l.43.02v-.46c0-.49.06-.64.22-.64s.32.21.69.9l.34.65.73.29c.4.16.83.29.95.29.2,0,.23-.03.3-.3.24-.87.45-1.25.98-1.78.4-.4.82-.64,1.3-.76.19-.05.41-.12.48-.15.13-.07.13-.08,0-.21-.07-.08-.33-.24-.56-.37-1.52-.84-1.92-1.07-2.29-1.36-1.11-.85-1.21-.89-2.91-1.09-.7-.08-1.05-.29-1.32-.8-.1-.18-.32-.49-.49-.67-.17-.18-.51-.58-.75-.88-.64-.78-1.2-1.24-1.8-1.5-.55-.23-.58-.26-.99-.84-.27-.38-.46-.52-.71-.52-.18,0-1.03.76-1.39,1.23-.14.19-.56.57-.93.84s-.99.76-1.37,1.08-1.09.84-1.58,1.15c-.48.31-1.12.71-1.41.9-.29.19-.81.58-1.14.86l-.61.52.02.34c.02.38.22,1.17.32,1.27.15.14.52-.06,1-.53.52-.51.57-.53.75-.42.1.06.1.12.01.43-.06.2-.07.39-.03.42.09.08.88.29,1.08.29.09,0,.23-.09.32-.21.34-.43.58-.36.62.2q.02.4.46.68l.43.28.31-.26c.54-.45.7-.32.51.41-.19.7-.17.82.2,1.15.42.37.94.7,1.53.95.62.27.81.26,1.09-.01ZM17.09,72.29c-.07-.17.04-.93.16-1.16.14-.25.34-.33.49-.19.1.09.1.19.03.65-.09.56-.24.81-.5.81-.08,0-.16-.05-.19-.11ZM26.65,71.64c-.23-.23-.47-.79-.43-1.02.04-.27.32-.26.56.04.55.68.44,1.55-.13.98ZM18.68,69.89c-.13-.14-.26-1.45-.17-1.62.1-.18.32-.18.5,0,.17.18.26,1.3.12,1.55-.1.17-.32.2-.45.06ZM20.68,69.84c-.1-.1-.15-.29-.18-.57-.04-.55.02-.78.21-.78.26,0,.4.31.41.91,0,.5,0,.55-.15.57-.09.01-.22-.05-.3-.13ZM22.69,69.89c-.17-.12-.33-.44-.44-.86-.1-.38-.06-.58.11-.64.21-.07.32.03.55.51.27.55.34.81.28.97-.05.13-.32.14-.49.02ZM24.87,69.79c-.25-.05-.58-.38-.77-.79-.27-.57-.23-.78.15-.69.24.06,1.13,1.02,1.1,1.2-.03.18-.28.32-.48.28ZM26.73,69.4c-.34-.27-.98-1.12-.98-1.3s.28-.31.49-.2c.23.12,1.19,1.34,1.17,1.48-.03.21-.42.22-.68.02ZM16.72,69.28c-.1-.29.25-1.18.44-1.12.26.08.05,1.21-.23,1.25-.1.01-.17-.03-.21-.13ZM14.98,68.8c-.18-.17.07-.74.38-.87.22-.09.29.03.22.35-.09.42-.42.7-.61.52ZM13.26,68.04c0-.13.5-.73.65-.78.36-.13.36.14-.01.57-.27.31-.64.44-.64.22ZM20.53,67.05c-.2-.46-.36-1.06-.31-1.23.05-.18.32-.3.44-.19.09.09.44,1.2.44,1.41,0,.15-.13.24-.35.24-.06,0-.16-.1-.21-.23ZM11.99,67.11c-.06-.16.16-.46.39-.51.43-.1.56.15.21.38-.32.21-.54.26-.6.13ZM19.03,66.95c-.12-.13-.29-.81-.29-1.16,0-.27.26-.41.45-.25.15.13.31.7.31,1.11,0,.2-.04.3-.15.35q-.19.1-.32-.05ZM22.14,66.92c-.19-.27-.43-.9-.43-1.12s.14-.31.34-.25c.14.05.68,1.18.64,1.35-.04.21-.41.22-.55.01ZM16.79,66.71c-.08-.12.02-.39.36-.96.33-.55.53-.66.75-.42.16.18-.04.84-.36,1.18-.27.28-.63.38-.75.2ZM15.63,66.06c-.19-.18-.1-.4.31-.73.45-.37.76-.42.81-.12.03.22-.41.77-.7.86-.28.09-.3.09-.41-.01ZM14.22,65.74s-.05-.15-.05-.28c0-.41.78-.9,1.22-.78.23.07.19.22-.17.58-.42.43-.84.63-1,.48ZM59.61,70.77c.93-.84,1.46-1.15,3.02-1.74,1.78-.69,2.72-1.09,3.15-1.36.75-.47,1.59-1.44,1.44-1.67-.03-.04-.22-.15-.42-.25-.23-.11-.41-.25-.45-.36-.04-.1-.07-.49-.07-.87,0-.38-.03-.73-.06-.77-.11-.17-.6-.29-1.31-.34-.69-.05-.77-.04-1.66.21-1.11.31-1.78.58-2.32.94-.53.36-1.3,1.05-1.61,1.44-.8,1.02-1.59,3.17-1.69,4.63-.05.68-.04.7.47.78.7.11.69.11,1.53-.64ZM58.91,69.72c-.1-.04-.13-.29-.05-.48.07-.17.61-.15.72.03.18.31-.25.61-.67.45ZM60.65,68.41c-.05-.05-.09-.21-.09-.36,0-.27,0-.28.25-.23.25.05.51.22.51.33s-.3.34-.44.34c-.08,0-.18-.04-.23-.09ZM63.14,67.74c-.11-.11-.11-.14,0-.35.11-.22.13-.23.39-.17.15.03.32.12.38.19.09.11.08.15-.1.29-.23.19-.49.21-.66.04ZM59.63,67.14c-.15-.08-.17-.29-.05-.5.05-.09.16-.14.33-.14.45,0,.58.31.23.56-.22.16-.31.18-.5.07ZM64.71,66.76c-.14-.1-.14-.11-.02-.36.1-.2.17-.26.35-.26.27,0,.4.12.4.37,0,.15-.05.22-.2.27-.26.09-.36.09-.53-.03ZM62.6,66.34c-.08-.12-.09-.21-.03-.36.07-.19.1-.2.46-.18.36.02.39.03.41.22.05.43-.6.67-.84.31ZM63.93,65.28c-.19-.09-.2-.12-.1-.37.06-.15.13-.18.34-.18.53,0,.64.16.32.47-.2.19-.3.2-.56.09ZM62.18,65.14c-.14-.13-.11-.4.06-.55.22-.2.43-.18.57.07.16.29.15.39-.08.49-.25.11-.44.1-.55,0ZM10.7,66.46c.54-.37,1.44-.97,2-1.33s1.03-.7,1.05-.77c.07-.2-.02-.37-.29-.52-.14-.08-.41-.4-.63-.73-.35-.52-.98-1.22-1.1-1.22-.03,0-.08.12-.12.26-.11.42-.45.59-1.18.59h-.6l-.3.37c-.16.21-.48.65-.7.99-.39.6-.4.63-.28.78.39.5.38.48.29.74-.07.22-.06.32.11.72.25.62.38.79.59.79.1,0,.6-.29,1.16-.68ZM10.74,64.68c-.13-.15-.19-.89-.08-1.09.13-.22.45-.2.54.03.1.24.1.86,0,1.03-.1.17-.32.18-.46.02ZM12.15,64.49c-.28-.26-.43-.76-.27-.94.18-.2.43-.13.55.16.16.39.23.7.17.87-.07.2-.17.18-.46-.09ZM9.36,64.5c-.03-.33.14-.81.34-.97.14-.11.35-.08.45.07.1.14-.06.67-.25.85-.17.15-.52.19-.54.05ZM70.14,65.12c2.7-.11,4.89-1.04,5.59-2.37.23-.44.25-.54.25-1.13,0-.77-.03-.82-.72-1.12-.65-.28-1.45-.31-1.98-.06-.33.15-1.23.87-2.89,2.29-.44.38-1.06.84-1.37,1.03-.55.33-.6.35-1.29.4-.61.04-.74.08-.86.21-.28.32-.11.74.32.79.24.03,1.63.01,2.95-.04ZM69.86,64.27c-.14-.16.09-.51.37-.56.13-.02.28-.02.35,0,.14.05.16.46.02.58s-.63.11-.74-.02ZM71.32,64.14c-.12-.12-.12-.55,0-.59.17-.06.49.09.55.26.04.12.01.19-.12.29-.2.15-.32.16-.44.04ZM73.51,63.5c-.24-.11-.28-.29-.12-.52.11-.15.17-.17.44-.16.3.02.32.04.34.24.02.17-.02.26-.18.37-.24.18-.24.18-.49.06ZM71.85,62.71c-.06-.07-.06-.15-.01-.28.13-.31.69-.22.69.11,0,.24-.51.37-.68.17ZM74.77,61.97c-.24-.05-.29-.13-.23-.36.07-.3.28-.4.57-.26.46.22.18.72-.34.62ZM73.03,61.72c-.19-.13-.13-.41.12-.54.19-.1.22-.1.4.06.23.2.25.4.05.5-.2.1-.41.09-.57-.02ZM8.23,63.71c.09-.09.41-.5.72-.91.31-.41.63-.81.73-.89.19-.16.38-.47.38-.63,0-.2-.23-.33-.6-.33-.34,0-2.6.64-2.81.8-.2.15.36.96.81,1.18.25.12.39.28.39.45,0,.14.13.49.19.49.02,0,.11-.07.2-.16ZM10.99,61.6c.24-1.05.25-1.35.04-1.63-.28-.39-.61-.51-1.24-.47-.86.06-1.54.29-1.92.66-.31.3-.41.52-.25.52.04,0,.41-.08.81-.18.92-.22,1.61-.24,1.88-.03.34.25.45.9.24,1.38-.13.3-.09.41.14.38.14-.02.18-.12.3-.63ZM71,61.39c.06-.1.04-.24-.07-.54-.24-.64-.34-.7-.89-.49-.3.11-.68.54-.6.67.03.04.23.12.45.18.22.06.48.16.59.21.26.14.44.13.53-.03ZM2.3,60.79s.06-.25.06-.45c0-.33-.02-.38-.18-.44-.33-.12-1.19.16-1.19.38,0,.12.54.59.76.67.19.07.44,0,.55-.16ZM6.81,60.97c.28-.06.33-.19.09-.25-.25-.06-.29-.19-.13-.51.13-.27.13-.29-.02-.6-.08-.18-.16-.33-.18-.35-.01-.02-.17.06-.34.17-.33.21-.31.32.07.32.16,0,.17.02.12.2-.03.11-.08.31-.11.44-.05.23-.07.25-.33.24-.25,0-.27,0-.21.12.15.26.47.33,1.02.22ZM76.42,59.5c.32-.15.41-.36.24-.54-.16-.16-.87-.51-1.18-.58-.32-.07-.46.11-.4.51.07.47.08.49.36.65.27.16.6.14.99-.04ZM36.05,64.66c-2.92-1.35-5.26-2.94-7.63-5.18-1.19-1.13-2.24-2.33-3.21-3.66-.5-.69-1.67-2.57-2.12-3.42-.65-1.21-1.49-3.65-1.87-5.48-.47-2.24-.5-3.09-.44-14.26.04-8.59.07-9.8.17-9.86.08-.05,5.54-.06,17.67-.03,15.47.04,17.57.06,17.67.15.1.09.11,1.11.09,8.43-.03,11.29-.12,13.49-.62,15.48-.4,1.6-.76,2.43-2.08,4.82-.91,1.66-1.62,2.7-3.02,4.48-.76.97-3.44,3.5-4.85,4.59-1.95,1.51-2.52,1.91-3.9,2.72-1.47.87-3.54,1.9-3.94,1.97-.19.03-.55-.11-1.92-.74ZM39.21,64.32c1.43-.69,2.42-1.26,3.91-2.25,1.74-1.15,2.76-1.97,4.41-3.53,3.55-3.35,5.44-5.93,6.9-9.41.85-2.03,1.19-3.15,1.34-4.41.14-1.17.23-7.67.21-14.58-.02-6.04-.04-6.85-.14-6.95-.1-.1-1.97-.11-17.23-.16l-17.11-.05-.09.15c-.07.11-.08,2.95-.06,11.08l.02,10.93.17.85c.31,1.56.61,2.58,1.31,4.48,1.13,3.06,3.45,6.44,6.15,8.96,1.07,1,1.83,1.6,3.1,2.45,2.39,1.59,3.9,2.43,4.99,2.75.27.08.55.16.61.18.26.08.41.02,1.5-.5ZM37.42,64.15c-.43-.11-.87-.25-.97-.32-.24-.14-.48-.52-.48-.73,0-.2.24-.65.44-.82q.15-.13-.07-.71c-.24-.65-.23-.88.06-.94.41-.1.63.16.86,1.01.11.42.26.59.44.49.19-.11.21-.33.08-.7-.18-.49-.09-.53.67-.3.36.11.67.23.7.27.03.04,0,.2-.07.37-.07.17-.19.67-.28,1.13-.14.74-.14.86-.05,1.08.21.46-.07.5-1.31.19ZM37.59,63.41c.2-.49-.22-.91-.52-.51-.15.2-.15.21.04.44.18.21.41.25.48.07ZM41.44,61.49c-.87-.44-1.25-.6-1.46-.6-.56,0-.47-.18.42-.79.72-.5.87-.52.94-.13.08.47.17.48.83.06.32-.21.66-.46.74-.56.14-.18.14-.2.02-.41-.16-.29-.11-.41.27-.71.44-.34.66-.2.46.3-.1.24-.28,1.25-.42,2.28-.11.85-.25,1.17-.48,1.16-.07,0-.66-.28-1.31-.6ZM42.74,60.85c.04-.1.09-.26.12-.36.04-.16.03-.17-.23-.17-.56,0-.59.66-.03.71.03,0,.09-.08.13-.18ZM32.36,61.9c-.19-.04-.17-.34.1-1.52.13-.55.23-1.19.23-1.42s.04-.43.08-.46c.11-.07.7.22.95.46.21.21.21.21.09.46-.17.34-.1.5.32.75.46.27.66.27.82,0,.14-.25.26-.26.7-.07.53.23.42.42-.34.6-.73.18-1.67.57-2.05.86-.35.27-.66.38-.89.34ZM33.98,60.71c.06-.03.03-.11-.09-.22-.19-.19-.37-.22-.51-.08-.12.11-.12.39,0,.43.1.03.45-.04.59-.13ZM36.97,60.51c-1.44-.6-2.96-1.62-4.73-3.16-1.64-1.43-2.08-1.89-2.88-2.96-.81-1.08-1.16-1.64-1.88-2.98-1.07-1.99-1.58-3.28-1.93-4.94l-.2-.96.05-8.35c.05-9.39.07-10.11.28-10.31.14-.13.54-.13,12.58-.12,6.84,0,12.68.03,12.97.05.88.07.83-.38.73,5.74-.13,8.34-.23,12.37-.31,13.13-.14,1.3-.41,2.13-1.16,3.53-.6,1.12-1.75,2.85-2.52,3.79-1.14,1.39-3.25,3.49-4.71,4.72-.97.81-2.36,1.73-3.33,2.2-1.01.49-1.96.86-2.2.85-.11,0-.45-.11-.75-.23ZM38.88,59.87c1-.46,2.03-1.03,2.75-1.53.21-.14.66-.45.99-.68.71-.49,2.71-2.3,3.46-3.12,1.21-1.33,2.85-3.47,3.53-4.61,1.66-2.78,1.66-2.8,1.81-12.66.11-7.36.1-9.8-.02-9.9-.11-.09-22.27-.21-22.64-.13l-.22.05.18.18c.28.28.6.43,1.01.48.26.03.45.11.63.26.14.12.4.28.56.36.46.22.53.37.44.92-.04.25-.05.59-.03.76.12.76,1.12,1.38,1.74,1.09.09-.04.35-.24.57-.44.38-.34.42-.36.8-.36h.4s-.02.53-.02.53c-.01.29-.07.72-.14.95-.15.53-.09.6.6.66.28.02.54.08.58.12.04.04.11.29.16.54.18.89.36,1.04,1.19.97.55-.05.55-.05.87.2.18.14.34.25.37.25s.34-.11.7-.25c.36-.14.7-.25.77-.25.07,0,.28.08.47.17.44.22,1.92.54,2.51.54.43,0,.46.01.88.38.24.21.6.49.81.62.21.13.62.39.92.57.58.36.68.5.76,1.03.1.64.3.8,1.12.88.4.04.62.11.96.3.67.39,2.2,1.56,2.3,1.76.05.1.11.42.13.71.04.58.05.56-.72,2.05-.25.48-.27.56-.23.99.07.8-.16,1.64-.53,1.94-.08.06-.51.24-.97.39-1.01.34-1.24.51-1.94,1.47-.52.71-.84,1-1.56,1.4-.16.09-.44.34-.62.56-.18.22-.61.64-.96.93l-.63.53-.46-.02c-.25,0-.44,0-.43.04.02.03.08.15.14.26.1.2.1.21-.41.68-.6.55-.6.57-.73,1.05-.06.25-.21.5-.48.81-.21.25-.45.58-.52.74-.15.32-.34,1.73-.27,1.99.07.25-.17.82-.38.91-.41.18-1.34-.43-1.66-1.08-.13-.27-.16-.54-.21-1.71-.05-1.32-.05-1.41.12-1.92.24-.73.34-1.35.33-2.06,0-.53.04-.73.35-1.63.29-.83.37-1.21.46-1.99.1-.89.25-1.52.53-2.24.18-.47.16-.58-.2-.79-.41-.23-.88-.65-1.01-.89-.06-.1-.17-.44-.26-.76-.22-.82-.64-1.8-.96-2.26l-.27-.4.08-.65c.11-.89.27-1.37.57-1.71.39-.45.96-1.6.96-1.95,0-.06-.16-.28-.34-.48-.33-.35-.37-.37-.92-.46-.51-.08-.62-.13-.93-.39-.52-.44-1.15-.79-1.65-.92-.79-.21-1-.32-1.2-.59-.1-.15-.32-.32-.48-.39-.26-.11-.34-.12-.8-.04-.6.1-.78.08-1.58-.22-.71-.27-.8-.34-1.39-1.17-.41-.58-.51-.79-.83-1.78-.35-1.1-.54-1.53-.69-1.62-.19-.11-.13.22.18,1.04.44,1.16.56,1.66.44,1.8-.14.16-.27.07-.65-.42-.27-.36-.34-.51-.34-.74,0-.33-.11-.62-.42-1.07-.43-.64-.42-.89-.42,8.42,0,9.18-.01,8.9.43,10.51.43,1.59,1.76,4.42,2.72,5.81.99,1.44,1.99,2.56,3.3,3.75,1,.9,1.6,1.34,2.96,2.17.92.56,2.27,1.24,2.47,1.24.06,0,.56-.2,1.1-.46ZM46.86,38.11c-.13-.05-.25-.35-.19-.48.06-.15.28-.13.43.02.15.15.16.31.03.42-.1.09-.12.09-.28.04ZM45.15,33.48c-.17-.17-.16-.27.02-.36.24-.12.46-.08.67.11.19.18.19.19.06.28-.2.14-.6.12-.75-.03ZM39.62,33.37c-.24-.12-.28-.24-.09-.33.18-.09.52-.04.73.11.15.1.15.11,0,.21-.18.12-.4.13-.65.01ZM42.47,33.42c-.41-.04-.48-.13-.23-.28.15-.09.19-.16.16-.28-.04-.14,0-.17.41-.28.74-.21,1.39-.04,1.56.42.12.32-.06.41-.88.43-.39.01-.85,0-1.02,0ZM39.88,32.71c-.08-.02-.23-.05-.32-.07-.21-.04-.22-.24-.02-.3.09-.02.14-.07.13-.12-.04-.12-.94-.44-2.11-.76-.57-.15-1.08-.33-1.14-.39-.3-.28.31-.52,1.33-.52.74,0,1.06.12,1.78.66.28.21.73.49,1,.64.27.14.58.34.68.44.17.17.17.19.05.3-.1.09-.28.13-.68.14-.3,0-.62,0-.7-.02ZM46.72,58.53c-.08-.09-.32-.37-.52-.64s-.43-.5-.51-.52c-.17-.05-.49.16-.89.57-.17.18-.32.32-.35.32-.08,0-.34-.3-.34-.4,0-.09,1.36-1.36,1.75-1.62.14-.1.3-.18.35-.18s.18.17.29.39c.13.25.4.56.78.89l.57.5-.16.21c-.14.19-.48.46-.73.59-.05.02-.15-.03-.23-.11ZM28.21,58.21c-.46-.37-1.47-1.52-1.47-1.66,0-.22.14-.41.4-.53.22-.11.25-.11.34.01.06.07.1.26.1.43,0,.3.14.52.34.52.13,0,.57-.34.57-.45,0-.04-.09-.17-.21-.28-.23-.22-.2-.34.11-.54.15-.1.18-.09.33.15.18.29.26.31.52.14.28-.18.2-.45-.2-.65-.18-.09-.32-.21-.32-.25,0-.11.32-.4.44-.4.05,0,.22.15.37.34.16.19.48.55.72.8.81.87.85.99.35.99-.26,0-.43.06-.75.27-.65.41-1.05.79-1.13,1.05-.09.29-.19.3-.5.05ZM48.33,56.7c-.13-.07-.26-.17-.29-.21-.03-.04-.29-.14-.58-.22-.33-.09-.57-.2-.64-.3-.18-.24-.14-.68.09-1.1.29-.52,1.22-1.58,1.38-1.58.13,0,.58.27,1.55.93.27.18.57.34.67.36.12.02.19.07.19.14,0,.13-1.4,1.77-1.7,1.98-.23.17-.37.17-.67,0ZM49.28,55.81c.3-.24.36-.43.2-.61-.19-.19-.44-.17-.62.06-.26.33-.28.49-.09.61.22.15.24.14.51-.07ZM48.5,54.87l.14-.24-.21-.17c-.28-.23-.39-.22-.62.07-.24.29-.25.57-.03.71.15.1.19.1.38,0,.12-.06.27-.22.35-.36ZM26.27,55.92c-.1-.08-.33-.34-.51-.58-.43-.59-.43-.82,0-.7.2.05.29.01.81-.33.65-.43,1.01-.73,1.01-.83,0-.16-.35-.5-.7-.66-.43-.2-.45-.32-.12-.55l.21-.15.27.24c.15.13.53.56.84.94.74.91.82,1.19.33,1.19-.14,0-.4.11-.66.28-.72.46-1.01.73-1.07,1-.07.3-.16.33-.4.15ZM48.77,52.89l-.17-.11.2-.3c.32-.47.94-1.22,1.07-1.29.09-.05.16-.02.25.09.18.21.27.19.42-.07.14-.25.11-.31-.18-.31-.3,0-.31-.29-.04-.75.27-.46.51-.71.7-.71.12,0,.15.06.18.41.03.35.12.55.62,1.37.6.98.68,1.23.45,1.34-.07.04-.73.1-1.46.15-.79.05-1.43.12-1.59.19-.32.12-.25.12-.46,0ZM51.35,51.73c0-.13-.18-.36-.29-.36-.03,0-.1.07-.16.15-.09.14-.09.17.03.25.2.14.41.12.41-.04ZM23.14,50.43c-.06-.09-.24-.46-.39-.82-.45-1.07-.54-1.61-.29-1.82.17-.14.32-.15.5-.02.12.08.13.12.04.35-.09.22-.08.3.03.58.13.32.19.36.43.33.27-.04.31-.15.15-.43-.08-.15-.15-.29-.15-.32,0-.09.52-.24.67-.2.18.04.21.17.09.38-.11.19-.01.36.2.36.62,0,.66-.51.09-1.12-.18-.19-.2-.26-.14-.38.07-.12.15-.14.44-.12.35.02.36.02.48.38.58,1.63.75,2.18.71,2.24-.07.1-.21.09-.6-.06-.34-.13-.35-.13-1.01,0-.37.07-.71.17-.77.21-.06.04-.11.19-.12.34-.03.31-.21.38-.38.14ZM53.33,49.82c-.13-.23-1.2-.6-1.71-.6h-.45s.05-.27.05-.27c.06-.35.36-.98.54-1.15.13-.12.15-.12.38.1.21.19.27.21.4.15.19-.09.28-.39.17-.58-.07-.12-.13-.13-.37-.1-.17.03-.31.01-.34-.03-.08-.12.27-1.3.39-1.34.06-.02.17.02.24.1.16.19.38.29,1.06.49.51.15.6.15.81.07.34-.13.45-.05.39.3-.07.4-.36,1.09-.48,1.13-.05.02-.23-.06-.38-.18-.16-.12-.33-.22-.38-.22-.14,0-.33.29-.33.51,0,.16.04.21.29.27.16.04.33.07.38.07.21,0,.27.29.13.63-.29.72-.6.99-.79.66ZM24.02,46.21c-.03-.07.03-.19.15-.3.26-.25.36-.52.29-.77-.14-.48-.53-.38-.92.23-.14.21-.34.45-.44.53-.23.17-.64.18-.94.02-.37-.2-.46-.48-.43-1.39l.02-.8.3-.02c.41-.03.8.05.8.16,0,.05-.07.15-.16.23-.2.17-.37.48-.37.67,0,.27.24.13.61-.36.31-.41.4-.48.77-.59.54-.17.85-.11,1.11.2.3.36.36.67.27,1.27-.06.34-.06.58-.01.7.11.26-.02.34-.54.34-.33,0-.46-.03-.49-.11ZM52.31,44c-.06-.06-.07-1.82,0-1.97.06-.14.17-.14.34,0,.17.15.4.08.52-.16.13-.27.03-1.12-.15-1.27-.11-.09-.17-.1-.3-.03-.31.16-.38.05-.38-.59,0-.43.03-.62.11-.68.12-.09.21.01.3.36.03.12.23.31.56.54.8.55,1.49.94,1.67.94.2,0,.46.2.52.4.08.24-.27.55-1.13.99-1.32.68-1.57.86-1.74,1.21-.15.31-.22.37-.32.27ZM54.12,41.47c.07-.1.05-.15-.06-.23-.23-.16-.35-.13-.35.1,0,.11.02.22.05.25.09.08.27.02.36-.12ZM24.61,43.3c-.17-.17-.21-.18-1.18-.18-.72,0-1.08.03-1.28.11-.15.06-.29.08-.31.05-.04-.06-.07-.98-.06-1.87,0-.74.07-.8.89-.87.68-.06.75,0,.83.65.07.64.19.8.57.8.16,0,.42-.05.57-.11.35-.14.38-.09.42.64.03.54-.06.96-.2.96-.04,0-.15-.08-.24-.18ZM22.99,41.91c.23-.21.04-.58-.34-.67-.34-.08-.62.4-.37.64.15.14.58.16.71.03ZM21.74,39.97c-.06-.28-.01-1.14.06-1.21.03-.02.16-.01.3.03.31.09,2.29.14,2.63.06.34-.08.4.06.34.77l-.05.57-.23-.02c-.47-.05-2.22-.04-2.61,0l-.4.06-.05-.25ZM55.19,39.13c-.08-.04-.59-.48-1.12-.96-.53-.49-1.01-.87-1.07-.85-.07.02-.09.22-.08.72v.69s-.21,0-.21,0c-.13,0-.25-.05-.29-.12-.04-.07-.08-.8-.1-1.64-.02-1.29,0-1.52.09-1.58.06-.04.13-.07.15-.07.02,0,.5.4,1.06.89,1.13.99,1.28,1.09,1.35.93.07-.17-.01-.98-.13-1.24-.09-.2-.09-.24,0-.3.16-.1.4-.08.57.03.13.09.14.24.15,1.74,0,1.37,0,1.66-.1,1.75-.09.08-.15.09-.27.03ZM21.78,38.07c-.12-.42-.06-2.65.08-2.92.29-.54,1.15-.53,1.58.02.1.12.22.22.27.22s.29-.1.53-.22c.26-.13.51-.21.64-.2.2.02.21.05.23.39.01.2-.01.43-.05.5-.04.07-.32.26-.62.41-.62.32-.83.54-.68.71.13.14.79.14.91,0,.16-.18.36-.13.41.12.09.4.05,1.02-.06,1.17-.1.13-.12.13-.34.01-.31-.17-2.33-.18-2.56-.02-.22.15-.26.13-.35-.19ZM23.16,36.98c.13-.15.05-.71-.12-.89-.17-.18-.45-.18-.64,0-.2.19-.22.81-.02.92.2.11.67.09.78-.03ZM52.35,34.06c.02-.58.07-1,.13-1.05.06-.06.15-.05.32.05.37.2.45.08.45-.67,0-.47-.03-.65-.12-.74-.11-.1-.14-.1-.28,0-.25.16-.36.02-.36-.45,0-.46.06-.72.16-.72.04,0,.14.11.23.25.2.32,1.57,1.22,1.96,1.28.38.06.69.28.69.48s-.4.55-1.42,1.26c-.41.28-.97.69-1.23.89-.26.21-.5.38-.53.38s-.03-.43,0-.96ZM54.22,32.67c.11-.11-.09-.34-.3-.34-.11,0-.14.05-.14.21,0,.18.03.21.18.21.1,0,.22-.04.27-.08ZM21.8,34.44c-.06-.05-.09-.32-.09-.7,0-.76.09-.87.48-.64.23.13.37.15,1.32.15s1.08-.01,1.21-.15c.08-.08.21-.14.3-.12.14.02.16.08.18.63.03.77-.07.94-.45.79-.14-.05-.71-.11-1.26-.13-.93-.04-1.02-.03-1.28.11-.33.18-.29.17-.41.07ZM21.76,32.41c-.12-.12-.12-.25-.05-1.54.04-.77.11-1.44.15-1.48.08-.07.6-.08.68,0,.02.02,0,.14-.06.27-.18.4-.19.59-.04.65.07.03.5.07.94.09.91.05,1.18-.02,1.32-.3.06-.12.14-.18.25-.16.15.02.16.07.18.84.03,1.21-.03,1.33-.49.91-.24-.22-.28-.23-1.05-.26-1.03-.04-1.22,0-1.17.25.02.11.08.29.14.42.08.19.08.25,0,.34-.14.16-.63.15-.8-.02ZM52.54,29.58s-.05-.18-.05-.34c0-.31.31-.89.6-1.14.25-.21.2-.26-.2-.24l-.36.02-.02-.39c-.01-.21,0-.58.04-.82.07-.49.22-.58.41-.26.1.17.2.22.48.26.5.07,1.44,0,1.47-.09.02-.05.09-.16.17-.24.12-.14.16-.14.26-.06.1.08.12.27.12,1.24,0,1.28-.06,1.6-.36,1.82-.35.26-.76.18-1.22-.23-.3-.27-.46-.23-.83.2-.26.3-.4.37-.51.27ZM54.82,28.46c.07-.1.11-.26.1-.37-.02-.15-.08-.21-.27-.26-.28-.07-.55.03-.55.2,0,.06.05.22.11.35.14.31.43.34.62.07ZM21.78,28.84c-.12-.21-.06-1.12.08-1.2.06-.03.2-.03.32,0,.18.06.3.03.7-.16.27-.12.57-.29.67-.36l.19-.14-.38-.32c-.21-.18-.52-.38-.68-.46-.28-.13-.32-.13-.48-.03-.1.06-.22.09-.28.08-.22-.08-.2-1.24.02-1.31.06-.02.15.09.22.26.13.3.62.68,1.86,1.41,1.14.68,1.12.82-.24,1.47-.55.26-1.14.57-1.31.68-.39.24-.55.26-.67.05ZM30.54,26.15c-.46-.29-.68-.62-.73-1.1-.06-.56.08-.98.45-1.29.38-.32.58-.39,1.13-.39.98,0,1.59.54,1.59,1.4,0,.52-.15.85-.55,1.2-.33.29-.58.38-1.12.38-.36,0-.5-.04-.78-.21ZM31.7,25.71c.15-.14.16-.21.13-.8-.02-.36-.08-.72-.13-.81-.12-.2-.5-.22-.62-.02-.1.17-.1,1.36,0,1.6.09.23.39.24.62.03ZM26.21,26.22c-.2-.05-.21-.08-.16-.75.01-.16.02-.54.01-.84,0-.53-.02-.57-.25-.77-.23-.2-.23-.22-.11-.33.11-.1.32-.12,1.23-.15,1.58-.04,2.1.12,2.21.67.1.48-.29.82-1.07.92-.6.08-.67.14-.62.48.02.16.06.38.09.49.05.17.02.2-.15.27-.23.08-.89.09-1.18,0ZM28.07,24.19c0-.15-.33-.29-.52-.22-.19.07-.16.4.05.47.21.08.48-.06.48-.25ZM33.93,26.18c-.03-.06.01-.17.08-.25.11-.11.13-.28.13-1.01,0-.8-.01-.88-.16-.99-.2-.15-.2-.32-.01-.41.08-.04.66-.07,1.32-.07,1.06,0,1.2.01,1.51.16.59.28.6.86,0,1.24l-.3.2.5.47c.55.52.58.66.15.74-.39.07-.84-.08-1.3-.43-.23-.18-.44-.32-.47-.32s-.04.17-.02.37l.02.37-.71.02c-.59.02-.71,0-.75-.09ZM36.11,24.3c.06-.1.05-.16-.04-.25-.17-.15-.74-.12-.77.04-.06.31.66.49.82.21ZM41.97,26.21c-.1-.06-.07-.1.13-.27.31-.25,1.31-1.7,1.31-1.89,0-.08-.05-.2-.11-.28-.17-.21-.14-.24.29-.29.68-.08.96.02,1.34.46.18.21.49.56.68.77.33.36.35.37.49.25.28-.23.68-.87.68-1.07,0-.28.13-.38.51-.38.36,0,.48.12.48.47,0,.22.77,1.33,1.24,1.79.44.43.35.48-.79.48-.99,0-1.12-.05-.97-.36.07-.14.04-.21-.12-.45-.11-.16-.26-.29-.34-.29s-.35.22-.61.5c-.61.64-.69.64-1.28,0-.25-.27-.55-.62-.67-.78-.12-.16-.27-.28-.33-.27-.14.02-.84.96-.84,1.12,0,.07.05.16.11.21.15.12.15.26,0,.31-.2.07-1.05.05-1.17-.03ZM50.3,26.17c-.03-.06,0-.18.05-.26.17-.25.2-1.41.05-1.83-.07-.2-.11-.41-.09-.46.05-.13.65-.2,1.15-.14.46.05.51.14.3.51-.17.3-.16,1.67.01,1.92.12.17.12.19-.01.28-.09.06-.36.1-.78.1-.52,0-.64-.02-.68-.12ZM49.58,60.69c-.34-.04-.57-.36-.63-.89-.08-.71.01-1.24.27-1.48.34-.32.42-.26.6.39.28.98.25.94.55.93.14,0,.4-.07.56-.14l.3-.14v-.53c0-.29-.03-.82-.07-1.18-.06-.61-.06-.65.09-.69.26-.08.71-.07.8.02.1.1.35,1.95.36,2.66,0,.43-.02.49-.18.59-.39.24-2.05.53-2.65.47ZM54.28,60.26c-.47-.27-.63-.59-.87-1.74-.22-1.08-.21-1.22.09-1.31.32-.1.36-.06.67.76.18.47.31.71.47.83.28.22.3.22.57,0,.26-.2.4-.59.4-1.08,0-.55.06-.67.31-.67.29,0,.33.11.51,1.26.16,1.09.12,1.33-.31,1.7-.42.36-1.41.5-1.84.25ZM57.93,60.17c-.49-.13-.81-.66-1.11-1.8-.19-.73-.19-1.05,0-1.2.15-.13.43-.16.5-.05.02.04.1.33.16.66.17.84.37,1.24.66,1.33.44.14,1.08.04,1.16-.2.02-.07-.03-.55-.11-1.08-.19-1.19-.19-1.12.04-1.22.42-.18.66.22.88,1.48.14.79.12,1.38-.03,1.6-.16.22-.57.38-1.26.48-.56.08-.57.08-.88,0ZM25.09,60.11c-.43-.08-.89-.31-1.08-.53-.18-.22-.31-.9-.34-1.8-.02-.62,0-.67.16-.8.1-.07.26-.14.36-.14.34,0,.45.2.55,1.03.05.43.13.81.16.84.12.12.21-.03.26-.43.07-.55.11-.66.24-.66.08,0,.11.11.11.46,0,.77.14.89.39.33.17-.38.32-.47.67-.39.3.06.35.28.24.91-.12.63-.26.94-.51,1.09-.24.14-.79.19-1.23.1ZM20.98,59.72c-.21-.05-.47-.14-.58-.21-.42-.26-.62-1.07-.51-2.07.03-.31.07-.63.07-.72,0-.09.08-.23.16-.31.13-.12.21-.14.44-.1.15.03.31.08.35.12.04.04.06.47.05,1.05-.03,1.06-.01,1.1.4,1.17.54.09.72-.15.88-1.16.12-.77.23-.95.56-.89.45.08.47.15.47,1.39s-.04,1.4-.65,1.69c-.38.18-1,.2-1.64.06ZM17.6,59.32c-.86-.12-1.39-.45-1.53-.94-.08-.29.02-1.83.16-2.43.1-.43.35-.55.8-.39l.2.07-.05,1.05c-.06,1.16-.03,1.28.34,1.46.55.27.72.09.95-1,.1-.46.2-.9.23-.96.07-.17.3-.22.61-.13l.27.08v.55c0,.85-.13,1.95-.23,2.17-.05.11-.2.25-.33.31-.29.14-.98.22-1.42.15ZM3.9,59.2c-.13-.23-.18-.77-.09-1.06.05-.19.2-.39.42-.58.34-.29.52-.36,1.4-.52.29-.05.57-.15.7-.25.36-.28.69-.19.69.19,0,.28-.36.6-.77.7-.75.17-.71.14-.76.61-.03.36-.07.44-.23.51-.1.05-.3.09-.42.09-.17,0-.28.06-.4.21-.19.24-.43.28-.54.09ZM50.4,59.06c-.02-.07-.06-.31-.09-.53-.06-.48.04-.72.29-.68.14.02.18.09.26.55.14.8.14.78-.16.78-.18,0-.27-.04-.3-.12ZM58.05,58.35c-.04-.15-.1-.46-.13-.69-.04-.34-.02-.45.07-.52.32-.25.53.06.62.97l.05.52h-.27c-.25,0-.28-.02-.35-.27ZM54.82,58.44c-.29-.27-.36-1.18-.1-1.23.26-.05.41.18.47.67.07.59-.09.82-.37.56ZM21.4,58.18c-.11-.19-.06-.96.06-1.07.17-.16.32,0,.32.31-.01.74-.19,1.09-.38.76ZM17.72,57.75c-.06-.21-.05-.75.02-.98.03-.1.11-.19.18-.2.17-.03.24.25.19.74-.06.53-.29.78-.39.43ZM70.75,57.45c-.05-.13.08-.72.55-2.41.5-1.79.8-3.48,1.03-5.84.1-1.06.31-2.9.46-4.11.41-3.3.49-4.28.65-7.72.08-1.74.15-3.3.15-3.46,0-.17.03-.3.06-.3s.19.1.34.23l.28.23-.08,3.29c-.1,4.3-.31,6.56-.87,9.29-.21,1.05-.4,2.38-.47,3.39-.04.57-.03.69.06.69.06,0,.15-.06.2-.14.09-.14,1-3.57,1.32-4.97.32-1.42.61-3.28.68-4.37.04-.63.12-2.61.18-4.42l.1-3.28.22-.18c.29-.24.48-.29.61-.16.1.09.1.5.03,3.44-.05,1.83-.13,3.82-.19,4.43-.14,1.46-.59,4.13-.96,5.72-.83,3.61-2.28,7.61-3.53,9.73-.59,1.01-.74,1.17-.84.93ZM4.78,56.5c-.07-.07-.22-.37-.35-.66-.21-.5-1.31-4.01-1.99-6.36-1.17-4.07-1.6-7.83-1.49-13.16.05-2.57.06-2.65.21-2.65.08,0,.26.1.4.23l.25.23.05,1.28c.03.7.07,2.56.09,4.12.06,3.89.24,5.59.86,8.36.13.56.31,1.45.41,1.98.2,1.05.38,1.56.52,1.44.06-.05.02-.37-.11-1.06-.21-1.07-.26-1.86-.47-7.88-.06-1.72-.15-4.25-.2-5.62-.05-1.37-.07-2.54-.04-2.6.05-.13.58-.31.67-.22.03.03.1.68.15,1.45.05.76.17,2.68.27,4.26.1,1.58.24,3.92.3,5.19s.13,2.42.15,2.56c.08.51.65,8.56.63,8.87-.03.36-.12.44-.31.25ZM53.33,55.92c-.09-.05-.11-.24-.11-.9,0-.73.02-.88.17-1.14.21-.37.41-.5.94-.6.84-.16,1.42.14,1.64.86.15.47.17,1.33.04,1.55-.09.15-.37.28-.45.21-.02-.02-.07-.4-.11-.84-.09-.94-.2-1.15-.61-1.18-.35-.03-.76.23-.88.56-.05.14-.09.54-.1.9v.66s-.21,0-.21,0c-.12,0-.26-.03-.32-.07ZM54.43,55.83s-.04-.4-.06-.78c-.03-.67-.03-.7.16-.83.42-.31.55-.12.55.81,0,.37-.02.72-.05.79-.06.14-.55.16-.6.02ZM56.43,55.76c-.06-.1-.1-.43-.1-.91,0-.85.11-1.11.57-1.4.35-.22,1.11-.23,1.41-.01.36.27.88,1.45.77,1.77-.06.17-.33.33-.41.24-.03-.03-.13-.28-.22-.56-.18-.54-.25-.63-.58-.87-.31-.22-.58-.2-.85.06-.22.21-.22.22-.22,1.03,0,.74,0,.81-.13.81-.08,0-.18-.07-.24-.16ZM57.42,55.73s-.08-.31-.13-.62c-.08-.48-.07-.58.03-.73.15-.22.39-.22.53-.01.14.2.3,1.19.21,1.28-.1.09-.6.15-.65.08ZM63.53,55.7c-.67-.17-1.56-.87-1.86-1.44-.25-.48-.32-1.24-.2-2.13l.09-.69-.2-.27c-.21-.28-2.1-2.29-2.9-3.07-.57-.56-.59-.51-.36.63.19.95.2,1.19.02,1.28-.18.09-1.31.22-1.86.22-.61,0-.69-.12-.7-1.05,0-.67,0-.69.16-.71.13-.02.21.04.3.2.39.63.94.05,1.09-1.14.04-.32.09-.64.12-.71.06-.19.24-.17.39.04.12.18.13.18,1.24.18h1.12l1.1.7c.61.38,1.39.88,1.73,1.11.71.46.65.46,1.74.17.56-.15.68-.15,1.26-.09.73.08,1.25.29,1.63.64.28.26.33.52.14.66-.09.07-.21.07-.59-.02-.47-.11-.82-.1-.82.04,0,.04.21.3.46.57.53.59.66.9.51,1.3-.05.15-.13.28-.18.29s-.32-.14-.6-.33c-.62-.43-1.19-.6-1.75-.54-.33.04-.43.09-.71.35-.4.39-.51.75-.46,1.51.03.45.1.73.36,1.33.25.6.31.78.24.86-.12.13-.31.17-.54.11ZM23.35,55.24c-.15-.14-.15-.25-.02-.42.13-.16.34-.13.49.08.1.14.09.17-.05.3-.19.18-.26.18-.42.04ZM13.01,54.95c-.12-.12-.05-.44.18-.74.67-.92.8-1.54.46-2.24-.45-.95-1.42-1.32-3.07-1.17-1,.09-1.11.05-1.02-.4.08-.41.56-.81,1.26-1.06.52-.18.55-.21.38-.27-.1-.04-.45-.04-.78-.02-.42.03-.63.02-.7-.04-.28-.22.01-.7.63-1.04.28-.15.47-.2.98-.22.83-.04,1.22.06,1.99.49.38.22.67.34.72.3.05-.03.6-.45,1.21-.93s1.24-.92,1.39-.98c.2-.08.42-.1.83-.07.33.02.8,0,1.16-.05.93-.14,1.03-.04.43.42-1.54,1.17-3.52,2.97-3.52,3.19,0,.08.07.47.16.86.23,1.01.18,2.04-.11,2.58-.43.77-1.28,1.34-2.1,1.41-.23.02-.45.01-.48-.02ZM21.01,54.82c-.07-.15-.06-.2.05-.32.19-.19.43-.15.55.1.13.25.01.4-.3.4-.16,0-.24-.05-.31-.18ZM19.37,54.74c-.21-.13-.22-.32-.03-.48.19-.16.36-.15.5.04.15.2.15.24-.03.41-.18.17-.22.17-.44.03ZM17.15,54.47c-.05-.06-.08-.21-.07-.34.02-.22.05-.24.28-.24.32,0,.45.16.35.44-.09.23-.41.31-.56.14ZM21.41,53.9c-.23-.05-1-.21-1.71-.35-1.86-.38-1.79-.35-1.79-.72,0-.4.12-.5.59-.43,1.12.15,3.65.75,3.96.93.2.12.23.39.05.56-.14.13-.51.14-1.1.01ZM54.31,52.75c-.04-.1-.07-.34-.07-.53,0-.3.03-.36.17-.41.09-.03,1.03-.08,2.09-.11,1.88-.05,1.92-.05,2,.09.11.19.11.77,0,.83-.07.04-3.41.31-3.9.32-.16,0-.23-.05-.29-.18ZM21.37,52.49c-.17-.04-.89-.2-1.6-.35-.71-.15-1.44-.31-1.62-.36l-.32-.08v-.69c0-.86.06-.97.55-.9.5.07.61.17.65.6.05.51.18.58.44.27.11-.14.26-.25.33-.25.22,0,.77.27.95.47.15.17.2.18.35.11.24-.12.59-.03.77.19.13.15.15.27.13.62-.03.49-.07.51-.63.38ZM69.73,51.32c-.03-.06,0-.54.05-1.05.2-1.97.22-2.55.13-3.74-.09-1.09-.08-1.35.12-3.8.12-1.45.27-3.44.33-4.44.07-1,.17-2.26.23-2.81.06-.55.13-1.21.16-1.46.06-.58.14-.73.3-.53.09.11.11.43.11,1.71,0,1.81-.11,4.81-.22,6.04-.22,2.48-.38,5.04-.32,5.1.12.11.29-.22.49-.98.36-1.35.43-1.88.54-4.41.15-3.3.34-6.66.39-7.12.04-.32.07-.37.24-.41.37-.09.4.05.4,1.74,0,2.74-.23,6.79-.46,8.32-.16,1.02-.76,3.95-.95,4.65-.19.69-.9,2.51-1.19,3.04-.16.29-.27.34-.35.15ZM54.88,51.12c-.12-.16-.12-.19,0-.36.18-.25.55-.25.66,0,.17.43-.39.73-.66.35ZM56.37,51.08c-.18-.17-.19-.27-.03-.48.15-.19.49-.21.67-.03.15.15.17.44.03.57-.14.13-.5.1-.67-.06ZM57.9,51.02c-.19-.18-.2-.41-.03-.63.1-.13.17-.15.32-.12.3.07.39.17.39.43s-.08.34-.36.42c-.12.03-.21,0-.32-.1ZM7.77,50.25c-.59-.69-1.95-4.13-2.13-5.35-.16-1.15-.46-4.44-.54-6-.09-1.75-.14-5.68-.07-5.75.02-.02.15,0,.28.03.27.09.25-.04.44,2.84.06.92.13,1.83.15,2.02s.08,1.01.12,1.81c.11,1.98.25,3.13.65,5.19.42,2.15.39,2.06.54,2.06.13,0,.12-.4-.09-1.88-.21-1.56-.27-2.17-.43-4.62-.17-2.55-.23-6.09-.11-6.88.06-.42.3-.77.44-.64.1.1.2.99.33,3.01.37,5.79.51,8.03.69,10.87.11,1.74.19,3.23.19,3.32,0,.23-.25.21-.46-.04ZM20.22,49.61c-.17-.11-.4-.31-.51-.43-.19-.22-.21-.27-.21-.93,0-.81.02-.82.61-.55.32.15.35.19.48.62.07.25.14.68.15.96.02.59-.06.65-.52.34ZM65.59,47.59c0-.21.18-.78.42-1.37.32-.78.77-2.17.92-2.83.06-.27.11-.78.11-1.15s.07-1.14.15-1.72c.17-1.2.99-7.37.99-7.48s.28-.08.41.04c.08.07.12.24.12.47,0,.44-.87,7.72-1.03,8.62-.23,1.3-.1,1.45.37.39.57-1.32.8-2.44.97-4.68.16-2.2.39-4.59.46-4.74.05-.12.13-.16.3-.16h.23v.48c0,.47-.26,4.3-.35,5.2-.07.68-.47,2.64-.68,3.34-.31,1.03-.72,2.07-1.09,2.77-.34.64-1.31,2.08-1.79,2.65-.22.26-.52.36-.51.18ZM10.35,46.13c-.27-.27-.66-.82-.79-1.12-.23-.52-.8-2.75-1.06-4.15-.32-1.76-.39-2.41-.5-4.44-.04-.86-.09-1.83-.11-2.17-.02-.33,0-.76.02-.96.05-.34.06-.36.3-.38.2-.02.26.01.32.14.04.09.11.87.15,1.73.22,4.29.29,4.96.69,7.14.26,1.39.42,1.76.35.78-.21-2.66-.58-8.64-.58-9.26v-.76s.25-.14.25-.14c.31-.18.35-.18.4.02.02.09.13,1.73.23,3.64.11,1.91.26,4.06.34,4.76.18,1.54.28,2.75.35,4.25.06,1.23.03,1.31-.36.92ZM58.62,46.23c-1.13-.35-1.6-.9-1.9-2.27-.33-1.51.01-3.25,1.25-6.3,1.29-3.17,1.62-4.12,1.99-5.79.23-1.03.25-2.87.04-3.8-.4-1.79-1.25-3.32-2.11-3.84-.58-.35-.63-.42-.64-1.04v-.55s.22-.02.22-.02c.48-.04,1.89,1.03,2.51,1.9,1.08,1.51,1.43,2.93,1.44,5.86,0,1.09-.03,1.53-.17,2.31-.3,1.65-.65,2.85-1.21,4.16-.52,1.2-1.23,3.33-1.39,4.16-.17.87-.22,2.27-.09,2.57.1.24.21.24.63.02.58-.31,1.15-.21,1.56.28.16.2.21.35.24.73.03.43.01.52-.18.87-.32.57-.72.81-1.38.83-.28.01-.65-.02-.82-.07ZM17.05,45.59c-.78-.16-1.35-.79-1.35-1.5,0-.65.46-1.25,1.08-1.4.31-.07.42-.07.83.05.56.16.68.11.83-.29.07-.2.09-.53.07-1.17-.03-.75-.11-1.18-.5-2.81-.81-3.38-.98-4.5-1.05-7.13-.04-1.35-.02-1.83.08-2.52.27-1.82.69-3.07,1.34-4.01.57-.83,1.36-1.49,1.75-1.49.18,0,.22.03.26.25.1.5,0,.73-.56,1.27-.9.87-1.4,1.78-1.67,3.06-.16.77-.18,2.84-.03,4.05.25,2.06.57,3.45,1.3,5.54,1.06,3.04,1.3,4.35,1.07,5.68-.09.49-.52,1.33-.86,1.67-.33.32-.92.62-1.46.76-.52.13-.54.13-1.12,0ZM62.61,45.28c-.02-.33.06-.57.62-1.69.86-1.73,1.3-3.2,1.7-5.61.24-1.42.4-2.85.47-4.06.06-1.02.1-1.17.32-1.05.12.07.13.22.13,1.74-.01,1.92-.07,2.35-.65,4.58-.22.84-.37,1.56-.34,1.63.05.12.06.12.2,0,.08-.07.22-.31.31-.52.25-.63.81-2.65,1.02-3.74.11-.55.23-1.14.27-1.32.04-.18.14-.8.22-1.38.1-.71.18-1.09.26-1.16.24-.23.29,0,.25,1.28-.04,1.37-.27,2.69-.78,4.52-.33,1.15-.42,1.4-1.1,2.89-.78,1.7-1.36,2.6-2.51,3.85-.17.19-.38.21-.4.04ZM12.9,43.58c-.9-1.42-1-1.61-1.32-2.44-.53-1.39-.68-2.24-.8-4.7-.06-1.19-.14-2.63-.19-3.19-.04-.56-.06-1.04-.04-1.07.07-.11.43.02.49.17.03.08.12.84.19,1.68.22,2.52.35,3.53.63,4.83.28,1.29.77,2.91.88,2.91.09,0,.08-.05-.09-.99-.25-1.37-.52-3.43-.69-5.16-.09-.9-.19-1.83-.23-2.06-.15-.83-.06-1.53.19-1.53.28,0,.35.32.69,2.98.15,1.19.41,3.13.57,4.3.31,2.22.47,4.58.32,4.93-.07.16-.11.1-.61-.67ZM15.63,41.81c-.24-.19-.6-.73-1.22-1.81-.37-.66-.64-1.36-.88-2.38-.23-.95-.86-5.43-.78-5.61.04-.11.43-.16.43-.06,0,.4.88,5.45,1.02,5.88.38,1.15.45,1.26.61,1.02.06-.09.06-.23,0-.5-.24-1.01-.71-3.85-.81-4.98-.16-1.71-.16-1.68.07-1.68s.27.12.5,1.53c.57,3.48,1.18,6.75,1.41,7.59.15.54.25,1.03.23,1.08-.06.15-.31.12-.56-.08ZM60.75,41.9s.09-.38.24-.73c1.19-2.73,1.65-4.37,1.97-7,.17-1.36.18-1.42.36-1.42.24,0,.44.14.44.3,0,.2-.43,2.51-.57,3.09-.06.24-.21.91-.34,1.49s-.31,1.29-.42,1.58c-.31.83-.34.92-.27.96.07.04.47-.39.79-.85.35-.5.87-1.94,1.16-3.21.06-.27.15-1.13.19-1.9.04-.78.1-1.44.13-1.47.1-.1.38.02.43.18.12.43,0,2.19-.23,3.51-.11.63-.61,2.12-.93,2.79-.46.96-1.38,2.08-2.1,2.57-.31.21-.78.27-.85.11ZM60.91,38.61c-.14-.13-.15-.03.08-1.16.11-.56.24-1.57.3-2.42.11-1.46.15-1.7.28-1.7.24,0,.25.72.02,2.41-.12.89-.05,1.16.15.6.12-.36.31-1.56.4-2.56.05-.63.18-.9.35-.75.2.18.06,2.28-.21,3.14-.11.35-.72,1.82-.95,2.29-.12.24-.26.3-.41.16ZM16.17,37.92c-.55-1.04-.76-1.83-1.15-4.38-.17-1.07-.29-1.99-.26-2.04.09-.21.56-.16.56.06,0,.05.1.87.23,1.83.23,1.75.32,2.23.46,2.31.1.06.09-.27-.04-1.23-.06-.46-.12-1.37-.13-2.04l-.02-1.21.21-.02c.41-.04.43.04.44,1.33,0,.65.04,1.6.07,2.11.04.51.09,1.59.12,2.4.06,1.74.01,1.83-.49.89ZM57.4,37.5c-.06-.14-.01-2.09.05-2.15.09-.08.86.14.89.26.03.14-.64,1.76-.79,1.9-.09.09-.11.09-.15-.01ZM19.79,37.35c-.29-.41-.59-1.69-.44-1.87.05-.05.27-.18.5-.29.54-.25.65-.19.65.4,0,.54-.14,1.48-.25,1.7-.12.24-.31.26-.45.05ZM57.45,34.64c-.08-.09-.09-.2-.04-.49.06-.35.09-.38.41-.53.37-.17.83-.21.98-.07.1.09.12.54.04.73-.12.3-1.2.58-1.39.36ZM18.81,33.42c-.07-.08-.11-.44-.13-1.19-.03-.92-.01-1.09.09-1.17.14-.11,1.26-.19,1.4-.1.15.09.25.74.25,1.59,0,.6-.03.79-.12.88-.3.28-.44.1-.56-.73-.1-.68-.14-.79-.27-.79-.1,0-.19.63-.19,1.25,0,.2-.04.31-.12.34-.18.06-.23.05-.34-.07ZM57.57,33.38c-.17-.11-.31-.91-.26-1.53.03-.37.06-.48.21-.59.36-.27.68-.15.77.3.08.42-.03,1.61-.16,1.73-.17.15-.41.19-.55.09ZM58.68,32.88s-.07-.43-.09-.85c-.02-.62,0-.8.09-.94.15-.21.43-.29.65-.18.14.07.16.15.16.55,0,.47-.18,1.27-.32,1.43-.04.05-.16.09-.26.09s-.2-.04-.24-.09ZM74.07,32.82c-.18-.08-.41-.25-.53-.37l-.2-.22.04-2.69c.03-1.74.07-2.72.13-2.78.11-.13.45-.05.56.13.06.1.1.8.13,2.25.03,1.85.05,2.12.17,2.29.25.36.76.22,1.04-.28.05-.09.09-.6.1-1.24,0-.6.03-1.57.06-2.15l.05-1.06.25-.16c.5-.32.5-.36.43,2.42-.03,1.37-.09,2.65-.12,2.84-.08.41-.47.89-.86,1.06-.36.16-.86.15-1.25-.03ZM2.23,32.4c-.45-.04-.76-.27-.98-.7-.11-.22-.12-.42-.08-1.54.03-.7.1-1.82.16-2.49.12-1.22.47-3.99.55-4.28.05-.2.25-.21.51-.01.26.19.26.3,0,2.06-.18,1.22-.21,1.61-.21,3.37,0,2.13.04,2.39.38,2.44.21.03.55-.3.64-.62.08-.29.34-2.87.46-4.52.09-1.2.14-1.6.23-1.74.07-.11.44-.12.54-.02.05.04,0,1.1-.16,2.98-.13,1.6-.25,3.23-.28,3.62-.05.76-.22,1.25-.46,1.37-.19.09-.82.13-1.3.09ZM71.11,32.23c-.13-.05-.31-.19-.4-.29-.16-.19-.16-.25-.16-2.42,0-1.27.03-2.3.07-2.41.09-.21.34-.25.45-.06.04.07.09.86.11,1.76.04,1.77.09,2.02.4,2.02.37,0,.42-.19.49-2.01.06-1.63.07-1.69.24-1.86.35-.35.38-.27.38.91,0,.6-.03,1.63-.07,2.29-.09,1.7-.25,2.06-.97,2.14-.16.02-.39-.01-.52-.07ZM5.25,32.08c-.32-.17-.4-.46-.35-1.2.08-1.23.44-5.34.49-5.73.05-.36.07-.39.27-.41.21-.02.21-.02.21.43,0,.47-.16,2.39-.35,4.24-.15,1.48-.15,1.49.08,1.57.2.07.72-.07.72-.2,0-.32.57-5.09.65-5.4.03-.11.09-.16.23-.16.26,0,.3.14.2.69-.05.26-.19,1.57-.32,2.93-.25,2.64-.32,2.93-.72,3.17-.27.16-.86.2-1.11.07ZM68.54,31.75c-.4-.22-.51-.95-.44-2.87.03-.83.08-1.55.11-1.59.1-.15.4-.09.45.08.03.09.05.82.05,1.62,0,1.04.03,1.48.09,1.55.13.12.34.11.4-.03.03-.06.06-.8.07-1.63.02-1.62.05-1.74.4-1.74.18,0,.18.02.18.55,0,.3-.05,1.27-.12,2.15l-.12,1.6-.23.2c-.24.21-.6.26-.85.12ZM66.12,31.42l-.23-.2.07-1.83c.06-1.5.09-1.85.19-1.94.07-.06.15-.09.19-.07.04.02.1.67.13,1.45.05,1.36.1,1.63.28,1.46.14-.13.21-.59.27-1.66.05-1.03.11-1.35.26-1.35.05,0,.08.67.08,1.96v1.96l-.22.21c-.3.28-.67.28-1,.01ZM7.94,31.44c-.37-.24-.42-.47-.37-1.66.03-.61.12-1.78.2-2.6.12-1.21.17-1.51.28-1.58.26-.18.28,0,.17,1.74-.06.93-.1,1.92-.09,2.21.02.74.27,1.05.58.74.09-.09.21-.72.44-2.22.18-1.16.36-2.14.41-2.19.15-.15.42-.04.42.18,0,.1-.12,1.11-.26,2.25s-.28,2.27-.31,2.51c-.04.36-.09.47-.24.59-.24.18-.97.2-1.22.03ZM64.09,31.05c-.22-.13-.24-.17-.29-.66-.07-.75-.02-2.71.07-2.73.22-.07.29.13.39,1.1.06.55.14,1.07.19,1.16.18.31.28-.03.33-1.18.06-1.13.11-1.31.39-1.21.11.04.12.18.07,1.39-.07,1.6-.11,1.83-.42,2.08-.28.23-.42.24-.74.06ZM10.97,31.07c-.27-.04-.59-.28-.73-.52-.07-.12-.11-.4-.11-.7,0-.49.27-3.09.36-3.4.06-.24.28-.33.43-.17.1.11.1.29-.02,1.64-.16,1.82-.13,2.07.23,2.07.26,0,.37-.32.64-1.78.29-1.62.31-1.67.51-1.78.11-.06.16-.05.19.05.05.13-.11,3.13-.2,3.66-.03.18-.11.41-.18.51-.2.29-.71.48-1.12.41ZM62.26,30.94c-.29-.19-.39-.59-.45-1.72-.06-1.14-.02-1.29.27-1.02.13.12.16.24.16.7,0,.66.07.9.24.93.15.03.19-.14.26-1.17.04-.68.07-.8.19-.83.32-.08.34.03.32,1.21-.03,1.27-.08,1.56-.37,1.82-.23.21-.38.23-.61.08ZM74.65,30.86c-.08-.09-.1-.43-.09-1.62.02-1.54.07-1.93.25-1.93.19,0,.25.49.21,1.95-.05,1.69-.09,1.9-.37,1.59ZM57.59,30.62c-.11-.18-.3-1.53-.3-2.1,0-.49.08-.6.43-.6.31,0,.33.04.49.74.1.47.15.57.28.59.14.02.16-.03.2-.6.04-.53.07-.65.22-.75.23-.17.54-.13.65.09.05.1.13.51.18.92.08.64.07.78-.03,1.01-.14.32-.6.58-1.27.73-.65.14-.74.14-.84-.03ZM13.51,30.56c-.13-.07-.31-.25-.4-.38-.15-.23-.16-.34-.16-1.73,0-1.06.03-1.51.09-1.57.11-.1.34-.11.4-.02.02.04.06.61.07,1.27.03,1.33.1,1.6.43,1.63.3.03.38-.19.51-1.47.06-.65.15-1.21.19-1.25.05-.05.12-.04.2,0,.12.07.13.22.12,1.51-.02,1.61-.07,1.83-.52,2.03-.34.15-.64.14-.92-.02ZM71.43,30.36c-.03-.11-.08-2.19-.06-2.63,0-.11.06-.16.15-.16.12,0,.15.08.19.48.03.26.05.92.05,1.46,0,.92,0,.98-.15.98-.08,0-.16-.06-.19-.12ZM2.51,29.4c0-1.55.31-4.42.54-5.08.09-.26.26-.3.34-.08.06.17-.06,1.58-.27,3.19-.08.61-.18,1.44-.23,1.85-.08.75-.19,1.14-.31,1.14-.04,0-.07-.46-.07-1.01ZM15.52,30.14c-.32-.33-.37-.6-.29-1.74.04-.59.11-1.11.16-1.15.17-.16.23.1.25,1.04.01.66.05,1,.11,1.06.18.17.31-.09.44-.83.18-1.07.17-1.04.36-1.02.16.02.17.06.19.89.02.97-.05,1.33-.33,1.65-.15.17-.26.22-.48.22-.18,0-.33-.05-.41-.13ZM5.78,30.05c-.11-.06-.11-.15.02-1.05.08-.54.21-1.58.29-2.32.08-.74.18-1.37.23-1.41.04-.04.13-.05.2-.03.17.06.15.5-.11,2.6-.28,2.27-.31,2.37-.62,2.2ZM19.04,29.85c-.23-.04-.27-.08-.29-.27-.03-.33.23-.47.77-.41.23.03.45.07.49.09.13.08.18.33.08.45-.11.13-.66.2-1.05.14ZM8.41,29.11c.03-.28.09-1.03.13-1.65.09-1.21.15-1.46.34-1.46.2,0,.21.18.05,1.37-.28,2.02-.32,2.26-.45,2.26-.1,0-.11-.08-.07-.52ZM11.09,29.36c-.12-.11.09-2.4.26-2.82.09-.21.29-.25.36-.07.06.16-.19,2.47-.3,2.69-.09.17-.24.27-.32.2ZM13.75,29.05c-.03-.08-.03-.56,0-1.07.04-.71.08-.93.17-.97.06-.02.14,0,.19.06.08.1.03,1.68-.06,1.96-.06.2-.23.21-.3.01ZM18.95,28.7c-.18-.1-.17-.4.01-.49.2-.1,1.1-.09,1.21.01.13.12.11.31-.03.44-.14.13-.98.15-1.19.03ZM19.97,27.03c-.13-.11-.35-.21-.49-.24-.36-.07-.35-.25.04-.64.19-.18.4-.43.48-.56.08-.13.18-.22.22-.21.1.03.15,1.68.05,1.77-.04.04-.17-.02-.31-.13ZM62.11,27.07c-.26-.1-.4-.36-.45-.85-.04-.39-.03-.46.09-.55.24-.16.34-.12.34.14,0,.53.32.95.58.75.08-.07.1-.19.06-.52-.04-.37-.03-.45.09-.55.27-.22.39-.21.44.02.06.28.06.73,0,1.08-.08.44-.63.66-1.15.47ZM64.05,26.8c-.25-.15-.26-.17-.35-.94-.08-.68-.04-.78.3-.78.27,0,.29.03.35.56.05.47.1.53.34.46.15-.04.16-.09.13-.65-.03-.54-.02-.61.12-.7.21-.14.42-.13.44.02.03.44-.04,1.71-.09,1.81-.18.32-.85.43-1.23.21ZM57.38,26.63c-.1-.09-.13-1.72-.05-1.93.03-.06.11-.11.19-.11.31,0,1.3,1.14,1.41,1.62.05.22.04.23-.21.23-.14,0-.33-.03-.41-.06-.11-.04-.23,0-.43.15-.31.23-.37.24-.51.12ZM66.22,26.42c-.23-.1-.23-.13-.3-1.12-.05-.84-.05-.86.11-.86.2,0,.29.15.35.64.06.49.15.64.29.51.07-.06.1-.3.1-.71v-.61l.25-.13c.14-.07.28-.11.33-.09.06.03.07.36.03,1.09-.05.99-.06,1.05-.24,1.2-.2.17-.62.21-.92.07ZM68.25,26.13c-.25-.15-.26-.19-.31-.69-.03-.29-.05-.81-.06-1.15v-.62s.21,0,.21,0c.12,0,.24.03.26.06s.08.41.12.83c.1.89.19,1.06.46.8.16-.16.17-.21.13-1.1-.03-.82-.02-.95.09-1.05.16-.14.34-.14.46,0,.12.14.06,2.43-.08,2.66-.12.21-.53.43-.81.43-.13,0-.35-.07-.5-.16ZM70.88,25.87c-.13-.07-.31-.22-.4-.33-.16-.19-.16-.27-.16-1.71s0-1.51.16-1.56c.09-.03.19-.02.23.02.04.04.1.39.14.79.07.76.22,1.17.47,1.3.12.06.18.05.27-.04.1-.09.14-.37.19-1.37.06-1.17.08-1.27.23-1.38.35-.26.35-.25.35,1.88,0,1.71-.02,2.03-.12,2.17-.28.37-.94.48-1.37.24ZM16.7,25.6c.03-.39-.12-.51-.2-.14-.05.26-.22.44-.35.37-.04-.03-.1-.17-.13-.33-.06-.34-.15-.36-.24-.06-.03.12-.12.26-.2.3-.22.12-.46-.2-.39-.52.15-.74.73-1.04,1.45-.75.31.12.49.45.49.89,0,.36-.11.57-.31.57-.14,0-.15-.04-.13-.33ZM74.24,25.48c-.13-.05-.33-.2-.46-.32l-.23-.23v-3.85l.2-.05c.2-.05.2-.04.25.35.03.22.08.89.12,1.48.09,1.37.23,1.67.73,1.56.37-.09.42-.32.42-2.01,0-1.69.02-1.76.43-1.84l.23-.04.05,1.52c.03.83.07,1.82.09,2.2l.04.68-.24.26c-.36.38-1.11.52-1.64.3ZM14.4,25.07c0-.21-.03-.43-.08-.48-.06-.08-.07-.05-.08.13,0,.28-.12.51-.27.51-.08,0-.11-.11-.13-.41l-.02-.41-.1.28c-.06.16-.15.35-.21.42-.1.13-.12.13-.23.03-.1-.1-.11-.17-.03-.53.15-.67.64-.99,1.18-.78.37.14.45.37.37,1.03-.06.48-.08.54-.23.56-.16.02-.17,0-.17-.36ZM62.06,25c-.07-.09-.12-.25-.12-.36,0-.23.1-.28,1.25-.63,1.77-.53,2.87-1.13,4.3-2.36.7-.6,1.16-.89,2.45-1.54,1.72-.86,2.29-1.3,2.29-1.75,0-.34-.12-.58-.51-1.02-.53-.6-1.06-.89-1.49-.8-.24.05-.14.16.55.57.38.22.7.45.72.5.02.05-.03.12-.1.16-.11.06-.31-.01-.93-.31-1.39-.67-1.68-.59-.42.12.52.3.74.45.74.55,0,.22-.28.17-1.11-.18-.42-.18-.82-.32-.9-.32-.14,0-.14,0-.01.14.07.08.35.27.62.43.32.2.49.34.49.43,0,.17-.1.15-.87-.2-.62-.28-.81-.3-.81-.1,0,.1.14.23.41.39.46.28.55.37.44.47-.05.04-.26,0-.59-.11-.28-.1-.58-.18-.66-.18-.25,0-.16.24.24.6.5.46.4.56-.25.25-.49-.24-.7-.25-.79-.04-.02.06.06.23.2.39.15.17.23.33.2.39-.04.09-.1.08-.46-.08-.46-.21-.58-.19-.4.08.25.36.14.47-.33.31-.23-.07-.27-.07-.39.07-.13.15-.13.17,0,.46.08.16.12.33.08.36-.03.03-.2-.01-.38-.1-.41-.2-.58-.15-.52.18.05.31-.07.41-.38.33-.28-.07-.32-.05-.32.21s-.03.28-.39.19c-.37-.09-.46,0-.37.36.07.31-.04.37-.38.2-.31-.15-.39-.12-.5.18-.08.22-.11.24-.36.22-.24-.02-.29,0-.39.2-.16.29-.35.28-.72-.05-.34-.3-.4-.56-.17-.74.07-.06.51-.31.97-.55,2.04-1.08,3.22-2.1,3.89-3.37.34-.64.42-1.19.24-1.63-.33-.79-1.34-1.14-1.91-.65-.15.13-.19.24-.19.48,0,.37.19.63.61.83.43.2.54.33.49.56-.12.46-.79,1.47-1.47,2.2-.66.72-1.7,1.32-2.97,1.71-.58.18-.83.15-1.2-.15-.45-.37-.36-.51.58-.95,1.16-.54,2.12-1.28,2.65-2.04.49-.71.49-.78,0-1.25-.57-.55-.61-.63-.58-1.37.01-.35-.01-.66-.05-.7-.04-.04-.43-.2-.87-.37-1.14-.43-1.71-.78-1.98-1.23-.2-.32-.22-.43-.22-.94,0-.97.43-2,1.42-3.37.35-.49.64-.93.64-.97s-.06-.1-.13-.12c-.31-.09-1.84-.33-3.18-.51-.8-.1-2.03-.26-2.74-.36-4.8-.63-11.41-.93-19.16-.86-4.49.04-5.28.07-8.68.34-4.65.36-10.36,1.13-10.55,1.42-.06.09.06.28.73,1.08,1,1.2,1.32,1.79,1.42,2.63.09.81-.27,1.3-1.67,2.27l-.83.57.05.37c.04.33.03.4-.18.68-.13.18-.38.41-.57.53-.44.28-.58.51-.58.98,0,.51.35,1.17.79,1.5.75.56,2.88,1.56,3.9,1.82.64.17.8.25.8.38,0,.05-.28.36-.62.7-.71.71-.76.73-1.74.47-1.43-.37-3.38-1.5-4.7-2.73-1.03-.96-1.42-1.45-1.45-1.83-.03-.28-.01-.31.29-.51.48-.32.63-.54.54-.79-.11-.3-.51-.49-1.03-.48-.54,0-.79.15-.99.58-.37.78.2,2.13,1.4,3.29.54.52.96.8,2.69,1.79.8.45,1.58.94,1.74,1.08.26.22.28.27.19.37-.08.09-.2.11-.53.08-.53-.04-1.35-.4-2.62-1.12-1.07-.61-5.63-2.84-6.4-3.14-.29-.11-.93-.34-1.41-.49-1.4-.46-1.6-.6-1.6-1.09,0-.65.42-1.1,1.83-1.96.4-.24.72-.48.72-.52,0-.15-1.44-.54-2.31-.63-1.01-.1-1.11-.08-1.05.28.03.15.07.52.1.84.04.5.03.61-.12.87-.24.45-.64.82-1.11,1.05-.61.3-.66.24-.78-.76-.05-.45-.12-1.02-.16-1.27-.07-.52-.03-.76.2-1.18.31-.57,1.21-1.15,2.19-1.41.57-.15.81-.18,1.74-.18.59,0,1.68.05,2.41.11,2.67.23,3.82.16,5.03-.27.75-.27,1.75-.86,1.75-1.02,0-.34-1.66-.31-3.62.07-5.32,1.02-6.5,1.08-7.42.36-.36-.28-.5-.63-.72-1.74-.21-1.07-.26-1.18-.89-2.06-.24-.34-.54-.82-.65-1.07-.37-.8-.25-1.75.29-2.37.58-.66,2.74-1.32,7.29-2.24C18.69.94,28.47,0,39.25,0c4.99,0,7.4.08,11.45.36,1.03.07,4.09.42,5.22.6.36.06,1.26.18,2.02.29,3.31.45,8.15,1.33,10.74,1.96,2.35.57,5.21,1.42,6.28,1.86,1.42.59,1.72.98,1.67,2.1-.03.66-.29,1.2-.98,2.06-.56.7-.71,1.03-.83,1.81-.05.31-.12.67-.16.79-.11.33-.48.63-1.04.84-.77.29-1.19.3-2.42.05-3.13-.63-5.03-.88-6.82-.89-1.47-.01-1.75.03-1.75.24s.58.69,1.1.93c.87.4.69.39,7.31.24,2.8-.07,4.02.1,5,.69.44.26.64.49.98,1.1.23.42.24.45.16.85-.08.42-.77,1.95-.98,2.17-.19.2-.48,0-.77-.51-.2-.34-.25-.61-.3-1.56-.06-1.04-.03-1.02-1.42-.98-1.42.04-1.96.27-1.4.58.68.37,2.16,1.67,2.79,2.45.52.64.6,1.01.33,1.52-.19.37-.47.52-1.17.63-1.15.18-1.34.23-2.18.64-1.03.5-3.88,2.04-4.72,2.55-1.34.81-3.43,1.58-4.75,1.73-.39.04-.43.04-.55-.12ZM76.59,16.44c.11-.26.19-.53.16-.6-.04-.13-.61-.49-.78-.49-.15,0-.25.44-.25,1.09,0,.51.03.67.13.78.13.13.14.13.33-.08.11-.12.29-.43.4-.69ZM2.57,17c.44-.44.5-.95.23-1.9-.2-.68-.31-.73-.67-.31-.22.26-.26.36-.29.8-.03.46.07,1.06.22,1.45.09.21.26.2.5-.04ZM63.18,15.25c1.07-.45,1.41-.51,3.37-.5,1.38,0,2.03.04,3.1.17l1.34.16.91-.22c1.2-.29,2.23-.35,3.22-.19.4.07.84.14.97.16.34.05.33-.11-.03-.44-.68-.62-1.56-.72-5.65-.64-1.71.03-3.72.05-4.48.05-1.32,0-1.4-.02-2-.22-.75-.26-1.38-.63-1.75-1.05-.2-.22-.33-.31-.47-.31-.29,0-1.37.65-1.83,1.1-.34.33-.39.42-.35.59.07.3.27.53.73.83.43.28,1.75.74,2.13.75.11,0,.46-.1.77-.24ZM9.37,15.03c1.05-.14,3.16-.14,4.15,0,.42.06,1.02.13,1.33.15l.57.04.85-.4c.66-.31.97-.51,1.39-.89.3-.27.54-.53.54-.59,0-.23-.75-.65-1.81-1.03-.58-.2-.76-.21-1.01-.02-.64.48-1.65.98-2.7,1.32-.65.21-1.93.29-3.69.22-3.87-.15-4.09-.15-4.72-.07-1.24.17-1.67.5-.64.5.87,0,2.65.36,3.84.77.45.16.56.16,1.9-.02ZM60.52,12.29c1.59-.88,2.2-.99,4.86-.86,1.84.09,3.29.27,5.3.68,1.31.27,2.05.31,2.52.15.35-.12.37-.22.07-.4-.85-.49-7.66-2.15-10.14-2.48-.91-.12-1.03-.12-1.29-.03-.42.15-1.42,1.3-1.86,2.12-.36.68-.51,1.24-.33,1.24.06,0,.45-.19.87-.43ZM18.07,12.21c-.06-.43-1.03-1.73-2.01-2.71-.25-.25-.39-.34-.56-.34-.61,0-5.18.97-7.76,1.64-1.26.33-3.02,1.15-2.89,1.34.02.04.54.07,1.15.07,1.01,0,1.26-.03,3.02-.35,4.74-.87,5.52-.85,7.99.17.52.21.97.38,1.01.37.04,0,.07-.09.05-.19ZM4.4,11.64c1.69-.97,3.91-1.61,9.16-2.62,4.17-.81,8.49-1.38,13.25-1.77.98-.08,1.85-.16,1.94-.18.89-.19,10.28-.25,14.94-.11,6.12.19,6.69.23,9.6.57,3.93.47,7.17.96,11.12,1.7,3.34.62,3.92.76,7.52,1.73.95.26,1.84.48,1.98.49l.25.02.12-.53c.18-.83.28-1.05.82-1.8.6-.84.88-1.44.92-2.01.09-1.25-.32-1.52-3.98-2.54-4.82-1.35-9.61-2.34-14.06-2.93-.48-.06-1.41-.19-2.06-.29-5.25-.76-11.85-1.09-18.97-.95-5.27.1-8,.27-13.98.85-4.67.46-7.67.88-11.13,1.56-1,.2-2.11.41-2.47.47-1.01.17-3.83.78-4.88,1.07-1.04.28-1.93.63-2.35.93-.41.29-.57.72-.53,1.37.05.65.22,1.03.7,1.56.44.48.78.94.88,1.19.04.11.14.65.22,1.2.13.97.23,1.31.39,1.31.04,0,.3-.13.59-.3ZM71.98,10.02c-.35-.32-.31-.67.23-2.16.51-1.39.62-1.63.9-1.91.14-.14.27-.2.47-.2.58,0,.84.43.65,1.09-.16.56-.91,2.61-1.06,2.89-.29.54-.79.66-1.19.29ZM72.78,9.47c.19-.35.71-1.8.92-2.56.17-.63.03-.93-.28-.6-.14.14-.69,1.58-1,2.6-.17.56-.19.72-.12.8.16.18.29.12.48-.23ZM5.28,9.99c-.09-.06-.24-.22-.33-.36-.19-.28-1.3-3.33-1.3-3.56,0-.19.18-.27.3-.14.05.05.36.83.69,1.72.33.89.66,1.7.72,1.79.07.11.17.16.28.14.27-.04.21-.36-.39-2.08-.71-2.05-.66-1.88-.51-1.93.07-.02.18,0,.24.06.18.17,1.32,3.38,1.32,3.72,0,.21-.05.36-.17.49-.22.23-.64.3-.87.15ZM70.23,9.53c-.3-.28-.29-.55.08-1.83.38-1.29.71-2.09.93-2.29.28-.24.6-.27.84-.07.26.21.32.59.18,1.09-.09.31-.12.36-.29.36-.19,0-.19,0-.16-.56.03-.55.03-.56-.15-.53-.16.02-.22.13-.46.81-.4,1.12-.76,2.45-.71,2.65.08.3.29.15.57-.4.26-.51.37-.6.53-.42.1.11.03.37-.24.87-.3.55-.74.68-1.13.32ZM7.03,9.46c-.12-.07-.38-.79-.9-2.5-.45-1.47-.48-1.73-.21-1.77.13-.02.26.11.62.61.42.58.7.88.7.77,0-.02-.09-.38-.19-.8s-.17-.78-.15-.82c.1-.15.25-.04.4.27.32.71,1.16,3.37,1.16,3.7,0,.21-.21.28-.34.11-.06-.07-.31-.44-.57-.81-.54-.8-.67-.96-.73-.91-.02.02.08.48.23,1.02.3,1.09.3,1.3-.02,1.11ZM69.12,9.2c-.02-.06-.02-.26,0-.44.08-.56,1.02-3.73,1.12-3.78.15-.09.3,0,.3.18,0,.37-1,3.9-1.16,4.07-.11.12-.21.11-.26-.02ZM68.41,8.96c-.04-.08-.08-.23-.08-.34,0-.3-.09-.73-.15-.73-.03,0-.18.19-.34.42-.34.5-.44.59-.61.53-.16-.06-.16-.21.02-.44.08-.1.33-.52.55-.93l.41-.75.03-1.09c.02-.87.05-1.1.14-1.13.18-.06.26.07.31.55.06.51.18.61.35.3.17-.31.51-.66.59-.61.14.08.06.34-.39,1.19l-.46.87v1.04c0,.57-.02,1.09-.05,1.16-.06.15-.24.14-.33-.03ZM8.92,8.82c-.1-.18-.96-2.98-1.08-3.56-.07-.33-.07-.46-.01-.52.25-.23.35,0,1.05,2.39.4,1.35.45,1.76.25,1.8-.07.01-.16-.04-.21-.11ZM66.11,8.63c-.33-.1-.36-.12-.36-.34,0-.46.88-3.94,1.03-4.09.08-.08.18-.09.54-.02.43.08.72.24.61.34-.03.03-.21.06-.4.06-.2,0-.38.05-.42.11-.11.16-.22.57-.27.99-.04.38-.04.39.2.52.29.15.27.28-.08.35-.14.03-.3.1-.35.17-.12.15-.36,1.36-.29,1.47.03.04.17.12.31.18.18.07.25.14.24.22-.03.16-.31.18-.77.04ZM10.18,8.51c-.12-.18-1.25-2.73-1.51-3.42-.16-.43-.15-.62.04-.62.11,0,.21.18.81,1.4.14.28.28.52.32.52.04,0,.04-.35.01-.83-.09-1.23-.08-1.33.06-1.35.07-.01.15.03.18.1.1.23.43,2.95.44,3.64.01.58,0,.68-.11.7-.07.01-.18-.05-.24-.14ZM11.53,8.3c-.05-.05-.12-.22-.16-.38-.14-.49-.68-3.04-.74-3.46-.05-.37-.04-.41.13-.49.28-.14.77-.2.93-.12.14.07.14.08-.04.21-.1.07-.22.13-.27.13-.05,0-.13.05-.18.11-.08.09-.07.22.03.68.07.32.16.62.2.67.04.05.2.11.34.14.33.06.33.16.02.4l-.24.19.13.7c.07.38.17.74.22.79.05.05.23.09.42.09.25,0,.33.03.33.11,0,.2-.97.41-1.12.24ZM64.94,8.28c-.02-.05.01-.46.08-.9.14-.95.15-1.37.04-1.18-.04.07-.19.42-.33.78-.34.87-.51,1.19-.63,1.19-.07,0-.1-.12-.1-.41,0-.57-.09-2.01-.13-1.98-.02.01-.13.47-.26,1.01-.13.54-.25,1.04-.27,1.11-.05.15-.25.17-.3.03-.06-.15.65-3.97.77-4.15.13-.19.24-.2.47-.05.16.1.17.17.17.91,0,.44.03.86.07.94.06.13.07.12.19-.11.07-.14.24-.52.37-.84.27-.65.38-.76.69-.69.17.04.2.09.2.28,0,.25-.48,3.04-.62,3.63-.12.49-.31.69-.42.43ZM13.03,7.97c-.08-.14-.84-3.81-.84-4.05,0-.22.21-.32.66-.31.48.01.61.09.8.5.24.5.31,1.05.21,1.45-.11.38-.09.44.38,1.59.25.6.25.75.02.75-.15,0-.21-.1-.66-1.07-.32-.69-.37-.69-.3,0,.1,1,.09,1.24-.06,1.26-.07.01-.16-.04-.21-.12ZM13.4,5.37c.08-.2-.05-.95-.2-1.17-.14-.2-.32-.27-.42-.17-.09.09.05.98.21,1.35.11.26.3.25.41,0ZM15.18,7.76c-.21-.03-.45-.31-.56-.66-.19-.59.15-.67.45-.1.21.39.36.48.54.31.27-.25,0-1.03-.6-1.65-.26-.27-.55-.66-.65-.85-.43-.86-.05-1.76.63-1.49.31.12.5.4.51.73.01.38-.18.34-.39-.07-.1-.19-.22-.34-.28-.34-.28,0-.31.55-.06,1.03.06.12.31.42.55.67.49.52.72.9.79,1.32.05.3-.04.71-.2.91-.11.14-.48.24-.72.21ZM16.57,7.38c-.17-.48-.75-3.72-.71-4.02.02-.14.07-.19.18-.19.19,0,.23.16.61,2.17.3,1.62.32,2.08.1,2.12-.07.01-.15-.02-.17-.07ZM59.29,7.41c-.38-.07-.37-.26.13-2.88.25-1.3.32-1.53.49-1.6.22-.08.67.05.89.26.2.18.22.25.22.68,0,.67-.36,2.61-.55,3-.24.48-.6.64-1.18.53ZM59.98,6.87c.13-.19.65-2.62.65-3.03,0-.3-.15-.51-.38-.51-.11,0-.16.11-.26.51-.15.62-.15.91,0,1.09.17.21.14.45-.08.58-.1.06-.21.18-.24.27-.1.3-.24,1.07-.2,1.16.06.15.39.11.51-.07ZM17.46,7.3c-.12-.14-.7-3.47-.7-4.03,0-.34.14-.43.67-.43.33,0,.41.03.57.22.24.27.31.49.54,1.81.32,1.78.23,2.29-.4,2.45-.38.1-.6.1-.69-.01ZM18.16,6.85c.15-.14.15-.35,0-1.42-.23-1.73-.4-2.24-.74-2.24-.16,0-.16.02-.12.62.05.7.39,2.67.51,2.96.09.21.17.23.34.08ZM19.22,7.02c-.04-.05-.07-1.04-.09-2.19-.02-1.83,0-2.11.1-2.19.09-.07.14-.07.23,0,.22.17,1.34,3.63,1.34,4.13,0,.09-.05.14-.14.14-.1,0-.18-.1-.28-.34-.18-.46-.25-.53-.53-.5-.23.02-.24.03-.31.51-.07.48-.19.64-.32.45ZM19.88,5.2c0-.3-.28-.93-.31-.69-.02.21.01.84.05.91.02.03.08.05.14.05.08,0,.11-.08.11-.27ZM21.19,6.8c-.09-.1-.36-1.78-.55-3.45-.11-.94-.08-1,.51-1,.44,0,.68.12.83.41.14.28.39,1.73.46,2.73.06.78-.01,1.03-.34,1.21-.32.18-.8.23-.91.1ZM22.03,6.02c.06-.76-.3-2.96-.52-3.19-.15-.15-.38-.18-.43-.05-.1.27.37,3.37.55,3.57.16.18.37,0,.4-.34ZM56.35,6.67c-.03-.12-.05-.33-.05-.46,0-.25-.1-.36-.34-.4-.12-.02-.2.06-.36.37-.25.46-.35.59-.44.53-.13-.08-.08-.35.31-1.6.81-2.6.92-2.84,1.23-2.68.15.07.15.13.09,1.93-.06,2.15-.1,2.49-.27,2.52-.08.02-.14-.05-.17-.2ZM56.34,4.93c.06-.35,0-.7-.12-.63-.04.02-.13.22-.19.43-.09.3-.1.41-.03.49.15.16.3.04.35-.29ZM54.27,5.52c.03-.73.02-1.1-.02-1.01-.04.08-.21.57-.38,1.09-.25.77-.34.94-.44.92-.13-.02-.14-.09-.29-1.79-.03-.31-.06-.54-.09-.52-.02.02-.12.51-.21,1.08-.18,1.08-.3,1.35-.49,1.14-.11-.12-.06-.69.23-2.92.16-1.22.27-1.53.51-1.53.33,0,.39.14.47,1.06.04.49.11.91.15.95.04.04.18-.26.35-.78.16-.46.32-.88.36-.93.1-.12.47-.11.58.01.1.11.06.58-.23,2.85-.16,1.3-.23,1.53-.42,1.53-.11,0-.12-.12-.08-1.15ZM50.91,6.42c-.09-.02-.26-.13-.36-.24-.23-.26-.25-.63-.08-2.02.22-1.77.36-2.19.83-2.33.29-.09.71.09.82.36.1.25.03,1.91-.12,2.88-.14.84-.32,1.22-.66,1.33-.13.04-.25.07-.25.07,0,0-.08-.02-.18-.04ZM51.34,5.74c.1-.3.39-2.49.39-2.99,0-.65-.37-.76-.52-.14-.19.78-.38,3.2-.26,3.32.13.12.32.03.4-.18ZM24.99,6.06c-.09-.3-.25-1.41-.43-2.92-.11-.93-.11-1.03,0-1.14.2-.18.33-.03.72.77.45.94.56.99.5.24-.02-.31-.06-.68-.08-.83-.03-.2,0-.28.08-.31.07-.02.15-.01.19.02.15.14.65,3.88.56,4.15-.1.3-.3.08-.72-.83q-.61-1.3-.61-.73c0,.26.03.72.08,1.01.04.3.06.6.03.68-.08.23-.25.16-.34-.13ZM49.6,6.13c-.06-.11-.54-2.1-.54-2.25,0-.04-.03-.03-.08,0-.04.04-.13.53-.19,1.09-.06.56-.13,1.04-.16,1.08-.02.03-.11.06-.19.06-.12,0-.15-.05-.15-.33,0-.73.32-3.97.4-4.06.05-.05.16-.09.24-.07.13.02.19.14.36.78.22.86.28,1.02.34.97.02-.02.09-.37.15-.76.06-.4.13-.75.15-.79.06-.1.24-.07.29.04.07.17-.19,3.72-.3,4.14-.06.2-.24.27-.32.11ZM26.92,5.85c-.08-.51.09-3.99.2-4.11.13-.14.28-.13.37.03.13.23,1,3.55,1.02,3.9.02.29,0,.34-.13.34-.11,0-.18-.09-.27-.33-.15-.4-.28-.56-.47-.56s-.23.09-.33.6c-.06.31-.12.44-.21.45-.1.02-.14-.05-.18-.31ZM27.73,4.36c0-.25-.16-.74-.24-.74-.09,0-.11.6-.02.83.06.17.27.1.27-.1ZM29.2,6.01c-.34-.22-.5-.94-.6-2.78-.05-.9.02-1.37.25-1.61.13-.14.55-.17.78-.06.32.16.53,1.23.27,1.33-.16.06-.17.04-.31-.44-.23-.83-.57-.76-.57.11,0,.66.2,2.63.29,2.85.09.22.26.3.38.19.05-.04.09-.28.09-.51,0-.28.04-.48.11-.57.11-.14.12-.14.23,0,.14.16.15.63.03,1.08-.12.46-.58.66-.95.42ZM46.76,6.03c-.27-.15-.36-.45-.36-1.22,0-.94.13-2.5.24-2.8.25-.71,1.26-.65,1.41.09.06.3-.09,2.82-.2,3.28-.11.47-.36.73-.7.73-.14,0-.31-.03-.38-.07ZM47.41,5.16c.1-.78.19-2.66.14-2.93-.04-.22-.09-.29-.22-.31-.24-.03-.3.15-.39,1.36-.12,1.53-.11,2.22.04,2.36.11.11.13.11.26,0,.08-.07.15-.27.18-.48ZM43.01,5.75c-.11-.12-.22-.33-.25-.48-.07-.36.1-3.61.2-3.79.05-.08.12-.13.17-.12.07.02.09.55.09,2.03,0,1.72.02,2.01.12,2.11.14.13.35.08.41-.11.02-.07.09-.96.14-1.97.05-1.01.12-1.88.15-1.92.1-.15.27-.09.32.11.09.33-.1,3.59-.23,3.87-.23.51-.8.64-1.15.26ZM45.19,5.85c-.05-.08-.04-.83,0-2.04l.08-1.91-.17-.13c-.27-.21-.16-.35.28-.34.77.02,1.04.18.64.37-.25.12-.28.27-.39,1.99-.05.81-.11,1.63-.14,1.81-.05.35-.19.46-.3.26ZM30.74,5.83c-.14-.21-.39-4.07-.27-4.27.09-.16.19-.18.27-.08.08.11.18,1.11.28,2.69.08,1.21.07,1.52,0,1.61-.11.12-.2.14-.27.05ZM31.82,5.81c-.28-.2-.37-.6-.45-2.1-.09-1.57-.05-1.95.24-2.22.35-.33.89-.23,1.11.2.15.3.32,2.72.23,3.38-.07.53-.32.82-.72.82-.16,0-.34-.04-.41-.09ZM32.36,5.48c.06-.03.12-.18.14-.34.06-.41-.11-3.21-.21-3.37-.11-.19-.27-.17-.42.04-.11.16-.12.34-.04,1.81.09,1.85.16,2.08.53,1.86ZM33.49,5.76c-.07-.1-.19-2.37-.19-3.31,0-.97.05-1.14.3-1.14.17,0,.22.08.49.79.17.44.33.81.35.84.03.02.07-.33.1-.78.05-.72.07-.82.19-.82.2,0,.24.3.3,2.02.06,1.99.04,2.31-.14,2.31-.15,0-.25-.19-.65-1.35-.12-.33-.24-.63-.27-.66-.07-.07-.15.73-.15,1.5,0,.32-.01.59-.03.59s-.08.02-.14.04c-.06.02-.13,0-.16-.03ZM37.4,5.72c-.11-.13-.11-.06-.09-2.54.02-1.86.02-1.9.17-1.9.09,0,.17.04.19.09.02.05.06.97.09,2.04l.06,1.95.37.1c.21.05.35.13.34.18-.07.19-.97.26-1.13.08ZM35.39,5.64c-.08-.2.34-3.67.5-4.14.06-.18.12-.23.25-.21.23.03.3.27.61,2.17.31,1.87.33,2.13.15,2.19-.15.05-.24-.07-.31-.43-.03-.15-.11-.34-.18-.42-.11-.13-.16-.14-.31-.08-.14.06-.21.18-.3.53-.12.46-.31.63-.41.38ZM36.32,3.96c.01-.1-.02-.32-.07-.49-.09-.29-.1-.29-.15-.13-.07.23-.09.74-.02.81.1.09.21,0,.24-.19ZM40.83,5.55c0-.41.42-3.03.62-3.86.07-.29.11-.34.26-.34.1,0,.2.03.22.07.14.21.55,3.86.47,4.16-.05.19-.23.24-.3.08-.02-.05-.06-.24-.09-.42-.06-.4-.2-.52-.47-.43-.16.05-.22.15-.32.49-.08.29-.16.43-.25.45-.1.02-.13-.02-.13-.19ZM41.82,3.88c0-.38-.11-.69-.17-.54-.12.29-.19.75-.12.83.15.17.3.02.29-.29ZM12.59,25c-.05-.05-.09-.28-.09-.53,0-.58-.13-.65-.2-.1-.05.44-.17.62-.37.55-.09-.03-.12-.16-.12-.54,0-.75-.14-.66-.27.16-.04.28-.08.34-.22.34-.37,0-.43-.27-.23-1.03.16-.58.41-.81.91-.81.42,0,.68.09.92.33.22.22.24.49.08,1.12-.12.48-.27.66-.41.53ZM8.53,24.27c-.07-.08-.09-.29-.07-.73.05-1.02.39-1.46,1.1-1.45.39,0,.63.13.89.46.22.27.27,1.28.09,1.61-.1.19-.17.23-.33.21-.2-.02-.21-.03-.23-.59-.02-.63-.08-.75-.28-.56-.11.1-.13.21-.09.61.04.4.02.49-.07.53-.25.09-.37-.17-.38-.78,0-.36-.04-.59-.09-.61-.08-.03-.15.35-.19,1.05-.02.34-.18.46-.36.25ZM7.4,23.86c-.11-.11-.12-.44,0-.9.09-.39.06-.76-.04-.4-.15.59-.21.74-.4.92-.18.18-.21.19-.31.09-.1-.09-.1-.18-.03-.57.05-.25.08-.53.08-.63v-.17s-.07.18-.07.18c-.04.1-.12.36-.19.59-.14.46-.38.65-.61.48-.16-.13-.15-.39.08-1.11.28-.9.66-1.15,1.45-.95.5.13.72.4.72.9,0,.46-.14,1.36-.24,1.54-.08.14-.3.16-.43.04ZM71.35,23.88c-.07-.11-.21-1.49-.16-1.61.07-.17.27-.11.33.09.16.56.02,1.8-.16,1.51ZM74.58,23.51c-.12-.4-.07-2.22.06-2.34.05-.05.12-.07.15-.04s.09.42.12.88c.11,1.31-.1,2.29-.33,1.5ZM4.29,22.77c-.04-.11-.02-.42.09-1.1.07-.4-.04-.33-.38.27-.3.52-.46.54-.46.05,0-.2.03-.51.07-.7.1-.53-.09-.39-.41.3-.15.32-.32.62-.39.65-.18.09-.35.01-.48-.21-.09-.17-.09-.24.03-.54.21-.57.56-1.33.67-1.5.22-.33.83-.27,1.5.14.4.25.72.71.72,1.05,0,.26-.39,1.44-.52,1.58-.14.15-.38.16-.44.01ZM30.84,22.31c-.16-.12-.18-.2-.2-.9-.04-1.1.03-1.48.26-1.58.3-.13.4-.1.55.19.19.34,1.02,2.3.99,2.32-.01.01-.34.04-.72.06-.61.04-.72.03-.88-.09ZM31.73,21.83c-.09-.34-.5-1.29-.58-1.34-.09-.05-.09.11,0,.8.1.73.11.73.38.73.22,0,.24-.01.19-.19ZM28.91,22.28c-.39-.06-.54-.11-.56-.2-.03-.15.97-1.98,1.14-2.07.08-.05.25-.05.49,0,.31.06.37.1.42.26.08.27-.06,1.57-.2,1.87-.1.22-.13.24-.44.23-.18,0-.57-.04-.86-.09ZM29.78,21.82c.09-.16.24-1.2.18-1.33-.09-.22-.41-.02-.52.33-.03.1-.14.33-.24.51-.22.4-.23.53-.05.58.31.08.55.04.62-.08ZM32.89,22.33c-.17-.04-.4-.47-.81-1.49-.41-1.02-.41-1.32.01-1.54q.28-.15.43,0c.15.14,1.17,2.41,1.26,2.8.04.18.03.21-.19.25-.26.05-.49.05-.7,0ZM33.14,21.54c0-.32-.58-1.57-.73-1.57-.06,0-.1.04-.1.09,0,.18.37,1.26.49,1.43.15.21.35.24.35.04ZM26.78,22.12c-.34-.06-.64-.13-.67-.16-.06-.06,1.29-1.72,1.58-1.94.19-.14.58-.15.96-.02.23.08.27.12.26.31-.01.23-.72,1.42-1.04,1.74-.22.22-.23.22-1.08.08ZM27.99,21.15c.3-.61.3-.63.16-.73-.08-.05-.18-.09-.23-.08-.14.04-.87,1.13-.83,1.24.05.12.31.24.47.21.06,0,.25-.3.42-.64ZM34.22,22.15c-.29-.33-1.38-2.82-1.38-3.17,0-.17.06-.26.28-.4.38-.24.64-.23.88.03.4.44,1.5,2.74,1.5,3.13,0,.16-.05.22-.3.31-.48.18-.87.22-.98.09ZM34.88,21.57c.07-.07,0-.27-.26-.83-.61-1.28-.7-1.42-.91-1.42-.11,0-.21.05-.24.11-.04.1.68,1.71.93,2.08.12.18.35.21.48.06ZM42.66,22.06c-.76-.2-1.3-.63-1.69-1.36-.35-.65-.33-.66.83-.61.95.04.99.03,1.66-.19.38-.13.96-.4,1.3-.6.6-.36,1.22-.87,1.15-.94-.02-.02-.24.06-.48.17-1.29.6-2.39.71-3.27.34-.56-.24-.89-.54-1.05-.96-.13-.35-.15-.76-.04-.82.04-.02.36,0,.71.04.81.11,1.32.02,2.15-.37.69-.32,1.66-.97,1.6-1.06-.02-.03-.38-.07-.79-.09-.64-.03-.83-.07-1.28-.26-.68-.3-.95-.49-1.24-.9-.37-.52-.36-.52.62-.52,1.36,0,2.65-.18,2.65-.36,0-.04-.11-.07-.25-.07-.38,0-1.1-.19-1.48-.4-.44-.24-.73-.65-.74-1.04v-.3s1.13-.01,1.13-.01c1.22-.01,2.13-.15,2.41-.37l.16-.12-.24-.42c-.41-.73-.45-1.44-.13-2.02.31-.57.49-.62.88-.25.14.14.31.24.36.23.06-.01.18-.2.27-.41.09-.22.22-.4.29-.41.07-.01.38.17.69.4.88.65.83.65,1.33.22.26-.22.47-.35.54-.32.06.02.13.04.14.04s.2.28.41.63c.78,1.27,1.6,1.8,3.28,2.11,1.84.34,2.37.57,2.8,1.24.31.49.33.92.06,1.41-.18.33-.61.8-.74.8-.04,0-.1-.13-.15-.3-.12-.41-.29-.63-.58-.74-.29-.11-.7-.13-.86-.03-.14.08-.1.12.27.23.25.08.31.13.33.29.03.24-.18.47-.66.74-.35.19-.36.19-2.68.05-.66-.04-.74-.03-.92.1-.31.23-.4.67-.4,1.92,0,1.68.22,2.43.89,3.07.7.68,1.68.91,2.39.57.18-.09.36-.16.4-.16.12,0,.1.54-.03.77-.16.29-.74.76-1.07.86-.18.05-.52.08-.88.06-.52-.03-.68-.08-1.32-.37l-.73-.34-.25.27c-.52.56-.59.61-.81.56-.37-.08-.75-.39-1.18-.95-.57-.74-.69-.83-.91-.74-.09.04-.43.28-.75.53-.63.5-1.46.91-2.13,1.07-.7.17-1.5.2-1.98.08ZM44.07,21.42c.72-.09,1.86-.63,2.55-1.22.4-.34.6-.71.63-1.14.02-.32,0-.34-.17-.36-.14-.01-.37.1-.8.39-1.46.98-2.43,1.43-3.52,1.63-.79.15-.85.19-.66.38.08.08.21.19.3.23.19.09.86.19,1.11.16.1-.01.36-.04.57-.07ZM49.83,21.27c.14-.16.15-1.26,0-1.39-.08-.07-.17-.05-.51.11-.62.3-.67.38-.5.73.09.2.25.35.47.48.39.22.4.22.53.07ZM53.25,21.24s-.08-.07-.17-.07-.46-.1-.82-.21c-.35-.12-.66-.2-.67-.18-.04.04.46.38.67.46.25.09.99.1.99,0ZM48.81,19.37c.16-.44.21-1.33.08-1.49-.1-.13-.12-.13-.38-.01-.15.07-.35.2-.44.29-.15.15-.17.23-.14.75.03.53.05.59.25.75.19.15.23.16.37.08.09-.05.2-.22.26-.37ZM44.24,18.3c.76-.21,2.42-1.41,3.07-2.23.25-.31.31-.44.31-.69,0-.53-.15-.48-1.01.31-1.13,1.03-2.61,1.82-3.71,1.97-.74.11-.93.18-.9.34.01.09.13.2.29.28.34.16,1.41.17,1.96.02ZM50.04,18.03c.22-.48.27-1.17.11-1.47-.17-.32-.35-.35-.53-.1-.26.38-.1,1.87.2,1.87.05,0,.15-.14.22-.3ZM47.97,17.55c.63-.43,1.12-1.3.93-1.64-.17-.3-1.15.41-1.55,1.13-.13.23-.17.6-.07.68.11.1.39.04.69-.17ZM50.35,15.39c.13-.25.19-.51.22-.89.04-.67-.02-.75-.51-.63-.27.06-.37.06-.6-.04-.25-.11-.29-.11-.65,0-.27.08-.42.18-.52.34-.19.29-.19.69,0,.91l.14.17.31-.19c.17-.11.34-.19.38-.19s.16.15.28.34c.44.71.65.76.94.2ZM45.87,14.81c.53-.14,1.52-.62,1.74-.84.14-.14.15-.2.09-.35-.17-.42.12-1.03.73-1.51.89-.7.95-.78.89-1-.05-.18-.05-.35,0-1.22.01-.21-.03-.28-.39-.55-.22-.17-.44-.29-.48-.27-.11.06-.08.75.04,1.14.14.44.14.53,0,.53-.18,0-.76-.53-1.15-1.07-.2-.27-.39-.49-.42-.49s-.12.08-.18.17c-.11.16-.11.21,0,.61.14.5.26.67.8,1.17.21.19.39.39.39.44s-.17.15-.37.23c-.76.3-1.23.38-2.54.42-1.45.04-1.59.11-.84.42.53.22,1.27.28,2.07.17.69-.1.79-.04.78.46-.01.54-.33.76-1.46,1.02-.53.12-1.71.29-2.01.29-.15,0,.13.22.36.28.4.11,1.51.09,1.96-.04ZM54.58,14.28c.05-.07-.27-.17-1.02-.29-.68-.11-.95-.26-.87-.47.09-.22,1.63-.65,2.55-.72.6-.04.71-.03,1.16.14.28.1.52.19.54.19.12,0,.01-.48-.15-.68-.25-.3-.71-.5-1.68-.71-1.13-.25-1.11-.25-1.55.27-.21.25-.74.73-1.18,1.08-.44.35-.8.66-.8.68,0,.07.42.18,1.29.34.44.08.87.16.95.17.29.06.71.05.76-.02ZM48.7,13.24c.13-.06.39-.22.56-.36.17-.13.35-.24.39-.24.09,0,.17.17.17.36,0,.08.05.14.12.14.13,0,.64-.46.64-.57,0-.04.27-.19.59-.34.59-.28.86-.54.86-.83,0-.1-.08-.06-.32.17-.44.4-.81.49-1.43.33-.42-.11-.49-.11-.71,0-.35.16-1.08.8-1.19,1.05-.09.2-.07.43.04.43.02,0,.15-.05.29-.12ZM52.27,12.52c.54-.52.83-.85.83-.96,0-.04-.06-.02-.14.03-.18.12-1.15,1.12-1.24,1.28-.14.25.06.11.55-.36ZM51.06,11.1c.18-.15.09-.25-.19-.2-.29.05-.47-.04-.59-.31-.12-.26-.21-.28-.28-.03-.07.26.08.52.37.63.27.11.48.08.68-.09ZM51.27,9.92c0-.1-.4-.64-.53-.72-.15-.09-.23.03-.15.23.15.38.68.76.68.49ZM24.28,21.98c-.57-.1-.9-.23-.95-.36-.02-.04.12-.19.3-.33.66-.5,2.97-1.97,3.1-1.97.18,0,.7.41.7.56,0,.12-1.69,1.9-1.99,2.1-.2.13-.44.13-1.15,0ZM26,20.81c.82-.76.83-.78.67-.88-.16-.1-.22-.07-1.19.54-1.01.64-1.23.83-1.15,1.03.06.14.51.24.69.16.08-.04.52-.42.98-.84ZM46.03,21.98c-.04-.09.06-.21.33-.43.55-.46.95-.73,1.1-.73.11,0,.77.96.77,1.13,0,.07-.91.15-1.65.15-.39,0-.5-.02-.54-.12ZM29.68,19.65c-.21-.19-.17-.64.07-.81.23-.17.68-.2.74-.04.04.1-.11.78-.19.86-.12.11-.51.11-.62,0ZM30.15,19.16c.02-.16,0-.2-.11-.18-.09.02-.15.1-.16.23-.02.16,0,.2.11.18.09-.02.15-.1.16-.23ZM28.02,19.57c-.19-.06-.39-.15-.44-.2-.06-.06-.11-.6-.15-1.44-.03-.74-.09-1.39-.12-1.46-.03-.07-.22-.24-.43-.38-.6-.41-.65-.63-.33-1.34.12-.26.19-.57.19-.79,0-.31-.05-.43-.34-.84-.56-.79-1.23-2.71-1.16-3.3.05-.42.23-.55.83-.61.8-.08,1.04-.15,1.39-.42.29-.22.39-.26.75-.26.47,0,1.22.27,1.62.59.21.16.24.24.29.68.04.43.09.54.36.87.17.21.42.54.56.74.14.2.41.54.6.77.38.46.43.68.22,1.06-.15.27-.41.55-.51.55-.04,0-.16-.07-.25-.15-.2-.18-.22-.11-.07.23.12.28.1.39-.17.65-.23.23-.37.24-.58.06l-.16-.14.03.34c.02.32,0,.36-.24.53-.3.22-.48.23-.68.07-.27-.23-.3-.01-.09.76.18.66.2.89.21,1.97,0,1.13,0,1.23-.15,1.36-.21.19-.75.24-1.19.11ZM28.69,18.72c.11-.16.12-.31.08-1.08-.03-.5-.12-1.27-.2-1.71-.26-1.34-.31-1.19.87-2.42.58-.61,1.04-1.16,1.07-1.27.07-.3-.14-.75-.65-1.38-.44-.54-.46-.59-.44-.93.02-.41-.04-.47-.68-.69-.54-.19-.6-.18-.88.08-.36.34-.51.4-1.15.5-.64.09-.77.19-.69.5.2.8.55,1.66.87,2.16.63.97.73,1.46.48,2.35l-.13.45.27.38c.38.54.43.71.53,1.89.09,1.05.18,1.37.42,1.37.06,0,.17-.08.24-.18ZM27.41,11.97c-.44-.23-.18-1.1.32-1.1.35,0,.61.25.61.57,0,.49-.48.77-.93.53ZM29.8,15.02c.16-.13.17-.22.07-.38-.06-.09-.1-.08-.27.07-.35.31-.15.61.2.31ZM30.98,12.8c.32-.33.4-.47.34-.53-.11-.11-.17-.06-1.52,1.31-.83.84-1.09,1.15-1.05,1.24.04.1.23-.05.93-.73.48-.47,1.07-1.05,1.3-1.3ZM30.76,14.17c.01-.08-.05-.2-.13-.28-.14-.12-.16-.12-.2-.01-.03.06-.03.2,0,.3.06.22.3.21.33,0ZM31.62,13.07c.11-.15.14-.24.09-.29-.1-.1-.6.31-.52.43.09.14.26.09.43-.14ZM30.93,19.21c-.1-.25-.09-.6.02-.81.05-.09.3-.27.54-.39l.45-.22.14.17c.1.11.14.28.14.53,0,.31-.03.4-.21.55-.45.38-.97.46-1.09.16ZM31.62,18.97c.09-.05.15-.15.15-.28,0-.23-.11-.3-.36-.21-.13.05-.17.12-.17.31,0,.27.11.32.39.18ZM32.58,18.42c-.43-.45-.11-1.37.48-1.37.29,0,.45.23.45.66s-.09.59-.43.73c-.34.13-.36.13-.5-.02ZM33.14,17.97c.05-.08.06-.24.03-.36-.04-.16-.09-.21-.21-.19-.24.03-.34.38-.17.56.17.18.24.17.34,0ZM29.73,18.32c-.05-.05-.09-.22-.09-.39,0-.26.05-.35.32-.63.45-.46.63-.42.66.14.01.23-.02.51-.06.61-.13.3-.62.46-.82.27ZM30.28,17.86c.07-.28-.08-.39-.26-.18-.16.19-.12.37.08.37.08,0,.16-.07.19-.19ZM30.93,17.69c-.05-.08-.07-.36-.06-.62.02-.45.04-.48.28-.64.14-.09.36-.16.47-.16.18,0,.23.04.29.27.18.6.06.98-.38,1.19-.3.15-.51.13-.61-.04ZM31.49,17.22c.07-.18.05-.51-.03-.57-.08-.05-.38.15-.38.26,0,.03.03.14.07.24.08.2.27.24.34.07ZM32.3,16.84c-.04-.08-.1-.35-.13-.6l-.05-.45.31-.31c.26-.26.33-.3.45-.23.34.19.52.93.3,1.3-.12.19-.49.44-.68.44-.07,0-.17-.06-.21-.14ZM32.89,16.33c.13-.12.12-.59-.01-.69-.23-.17-.52.34-.35.63.1.17.23.19.37.06ZM29.75,16.75c-.17-.22-.16-.85.01-.99.5-.4.7-.3.76.39.03.4.02.48-.12.61-.21.2-.5.19-.65,0ZM30.23,16.25c.02-.23,0-.27-.11-.25-.1.02-.15.1-.16.3-.02.23,0,.27.11.25.1-.02.15-.1.16-.3ZM30.8,15.98c-.05-.05-.1-.27-.1-.49,0-.34.03-.42.21-.59.33-.29.51-.25.66.14.07.18.12.4.12.48,0,.32-.67.66-.9.45ZM31.37,15.5c.03-.34-.11-.45-.3-.23-.08.09-.15.25-.15.34,0,.15.03.17.21.15.18-.02.21-.06.23-.26ZM24.38,15.18c-.23-.05-.83-.17-1.33-.26-1.07-.19-1.26-.25-1.26-.38,0-.15.22-.29,1.01-.62.41-.17.82-.37.91-.45.16-.14.16-.14.02-.24-.08-.06-.34-.09-.61-.09-.69,0-.72-.02-.72-.49,0-.6.18-1.02.65-1.49.46-.46,1.22-.88,1.53-.85.18.02.24.1.52.77.34.81.66,1.45,1.02,2.06.15.25.23.49.23.67,0,.38-.37,1.1-.65,1.28-.28.17-.79.2-1.33.08ZM25.2,14.53c.24-.15.4-.47.4-.79,0-.21-.08-.36-.34-.67-.22-.26-.46-.68-.65-1.14-.17-.4-.34-.76-.37-.79-.21-.21-.93.35-1.07.83-.11.36-.02.44.63.5.52.05.86.19.93.36.03.06.05.29.05.5,0,.41-.06.51-.57.85-.28.19-.19.31.29.38.51.08.55.07.73-.04ZM31.81,14.99c-.15-.27-.15-.73,0-.99.15-.26.55-.58.68-.53.13.05.5.81.5,1.03,0,.19-.1.32-.41.54-.32.23-.62.21-.77-.05ZM32.46,14.72c.15-.11.17-.16.1-.37-.1-.32-.31-.44-.46-.25-.13.17-.14.55-.02.66.12.11.17.11.37-.05ZM20.53,14.53c-.8-.39-.91-.56-.86-1.27.04-.56.27-.91.9-1.36.51-.37,1.34-.76,1.49-.71.14.05.14.1-.01,1.02l-.12.76-.46.4c-.44.39-.46.42-.41.67.1.57.1.55-.1.57-.1.01-.29-.03-.42-.09ZM20.86,13.15c.36-.3.41-.38.45-.67.04-.3.02-.33-.11-.33-.4,0-1.12,1.08-.88,1.3.08.08.12.06.55-.3Z"/>
      <g>
        <path class="cls-1" d="M115.88,14.02v16.31c0,4.65-3.5,7.65-8.95,7.65s-8.89-2.93-8.89-7.65V14.02h2.96v16.31c0,1.75.54,2.93,1.69,3.82,1.12.8,2.52,1.21,4.24,1.21,3.73,0,5.99-1.91,5.99-5.03V14.02h2.96Z"/>
        <path class="cls-1" d="M122.83,20.55v2.8c1.47-2.33,3.06-3.28,5.54-3.28,3.22,0,5.29,1.78,5.29,4.56v12.62h-2.64v-11.57c0-2.01-1.34-3.28-3.44-3.28-2.74,0-4.52,2.23-4.52,5.64v9.21h-2.68v-16.69h2.45Z"/>
        <path class="cls-1" d="M140.65,17.36h-2.68v-3.35h2.68v3.35ZM140.65,37.24h-2.64v-16.69h2.64v16.69Z"/>
        <path class="cls-1" d="M149.09,37.24l-5.86-16.69h2.99l4.46,13.54,4.72-13.54h2.99l-6.4,16.69h-2.9Z"/>
        <path class="cls-1" d="M162.25,29.79c.03,1.66.25,2.61.89,3.57.89,1.4,2.33,2.17,4.01,2.17,2.13,0,3.63-1.15,4.36-3.35h2.68c-.67,3.63-3.31,5.8-7.14,5.8-4.72,0-7.58-3.35-7.58-8.86s2.99-9.05,7.65-9.05c3.12,0,5.67,1.66,6.75,4.4.48,1.24.67,2.77.67,5.32h-12.3ZM171.68,27.62c0-2.99-1.88-5.1-4.59-5.1s-4.56,2.01-4.78,5.1h9.37Z"/>
        <path class="cls-1" d="M180.57,20.55v3.03c1.53-2.49,2.84-3.51,4.56-3.51.32,0,.57.03,1.02.1v2.71c-3.66-.1-5.32,1.69-5.35,5.7v8.67h-2.68v-16.69h2.45Z"/>
        <path class="cls-1" d="M197.84,25.2c-.06-1.75-1.21-2.68-3.35-2.68s-3.54.96-3.54,2.52c0,1.18.92,1.88,3.09,2.39l2.55.61c3.31.8,4.72,2.17,4.72,4.65,0,3.22-2.68,5.29-6.88,5.29s-6.53-1.85-6.66-5.7h2.8c.16,1.18.35,1.66.76,2.13.67.7,1.88,1.12,3.31,1.12,2.33,0,3.89-1.05,3.89-2.64,0-1.18-.73-1.85-2.58-2.29l-2.49-.6c-3.95-.96-5.29-2.2-5.29-4.81,0-3.09,2.52-5.1,6.4-5.1s6.02,1.85,6.05,5.13h-2.8Z"/>
        <path class="cls-1" d="M207.4,17.36h-2.68v-3.35h2.68v3.35ZM207.4,37.24h-2.64v-16.69h2.64v16.69Z"/>
        <path class="cls-1" d="M225.47,37.24h-2.36v-2.2c-1.43,2.07-3.03,2.93-5.32,2.93-4.52,0-7.26-3.47-7.26-9.11,0-5.32,2.84-8.79,7.17-8.79,2.23,0,4.01.89,5.13,2.58v-8.63h2.64v23.23ZM213.3,29.02c0,3.89,1.94,6.47,4.87,6.47s4.65-2.55,4.65-6.4-1.82-6.53-4.68-6.53-4.84,2.58-4.84,6.47Z"/>
        <path class="cls-1" d="M244.33,37.69c-.89.22-1.24.29-1.82.29-1.72,0-2.55-.73-2.74-2.45-1.88,1.72-3.57,2.45-5.67,2.45-3.38,0-5.48-1.91-5.48-4.94,0-2.17.99-3.63,2.93-4.46,1.02-.41,1.59-.54,5.35-1.02,2.17-.29,2.74-.7,2.77-1.85v-.7c0-1.59-1.31-2.48-3.73-2.48s-3.7.92-3.92,2.96h-2.68c.06-1.66.38-2.61,1.15-3.47,1.15-1.24,3.09-1.94,5.54-1.94,4.11,0,6.28,1.59,6.28,4.56v9.81c0,.83.51,1.31,1.43,1.31.16,0,.29,0,.57-.06v2.01ZM239.68,28.99c-.89.41-1.43.54-4.27.92-2.87.41-4.01,1.31-4.01,3.06s1.21,2.68,3.28,2.68c1.56,0,2.87-.51,3.95-1.5.8-.73,1.05-1.27,1.05-2.17v-2.99Z"/>
        <path class="cls-1" d="M260.78,37.24h-2.36v-2.2c-1.43,2.07-3.03,2.93-5.32,2.93-4.52,0-7.26-3.47-7.26-9.11,0-5.32,2.84-8.79,7.17-8.79,2.23,0,4.01.89,5.13,2.58v-8.63h2.64v23.23ZM248.6,29.02c0,3.89,1.94,6.47,4.87,6.47s4.65-2.55,4.65-6.4-1.82-6.53-4.68-6.53-4.84,2.58-4.84,6.47Z"/>
        <path class="cls-1" d="M292.16,37.24h-3.35l-12.01-18.83v18.83h-2.8V14.02h3.22l12.14,18.99V14.02h2.8v23.23Z"/>
        <path class="cls-1" d="M311.44,37.69c-.89.22-1.24.29-1.82.29-1.72,0-2.55-.73-2.74-2.45-1.88,1.72-3.57,2.45-5.67,2.45-3.38,0-5.48-1.91-5.48-4.94,0-2.17.99-3.63,2.93-4.46,1.02-.41,1.59-.54,5.35-1.02,2.17-.29,2.74-.7,2.77-1.85v-.7c0-1.59-1.31-2.48-3.73-2.48s-3.7.92-3.92,2.96h-2.68c.06-1.66.38-2.61,1.15-3.47,1.15-1.24,3.09-1.94,5.54-1.94,4.11,0,6.28,1.59,6.28,4.56v9.81c0,.83.51,1.31,1.43,1.31.16,0,.29,0,.57-.06v2.01ZM306.79,28.99c-.89.41-1.43.54-4.27.92-2.87.41-4.01,1.31-4.01,3.06s1.21,2.68,3.28,2.68c1.56,0,2.87-.51,3.95-1.5.8-.73,1.05-1.27,1.05-2.17v-2.99Z"/>
        <path class="cls-1" d="M324.44,26.16c-.32-2.33-1.72-3.63-3.95-3.63-2.9,0-4.62,2.48-4.62,6.66,0,3.95,1.75,6.34,4.68,6.34,2.26,0,3.63-1.34,4.08-4.01h2.68c-.32,4.08-2.84,6.47-6.82,6.47-4.52,0-7.39-3.41-7.39-8.79s2.9-9.11,7.42-9.11c2.33,0,4.33.92,5.48,2.49.64.92.99,1.98,1.12,3.6h-2.68Z"/>
        <path class="cls-1" d="M332.82,17.36h-2.68v-3.35h2.68v3.35ZM332.82,37.24h-2.64v-16.69h2.64v16.69Z"/>
        <path class="cls-1" d="M351.37,29.15c0,5.48-2.84,8.83-7.55,8.83s-7.55-3.31-7.55-8.95,2.8-8.95,7.52-8.95,7.58,3.28,7.58,9.08ZM339.04,29.02c0,4.05,1.82,6.5,4.78,6.5s4.78-2.45,4.78-6.4-1.78-6.59-4.78-6.59-4.78,2.45-4.78,6.5Z"/>
        <path class="cls-1" d="M357.52,20.55v2.8c1.47-2.33,3.06-3.28,5.54-3.28,3.22,0,5.29,1.78,5.29,4.56v12.62h-2.64v-11.57c0-2.01-1.34-3.28-3.44-3.28-2.74,0-4.52,2.23-4.52,5.64v9.21h-2.68v-16.69h2.45Z"/>
        <path class="cls-1" d="M387.6,37.69c-.89.22-1.24.29-1.82.29-1.72,0-2.55-.73-2.74-2.45-1.88,1.72-3.57,2.45-5.67,2.45-3.38,0-5.48-1.91-5.48-4.94,0-2.17.99-3.63,2.93-4.46,1.02-.41,1.59-.54,5.35-1.02,2.17-.29,2.74-.7,2.77-1.85v-.7c0-1.59-1.31-2.48-3.73-2.48s-3.7.92-3.92,2.96h-2.68c.06-1.66.38-2.61,1.15-3.47,1.15-1.24,3.09-1.94,5.54-1.94,4.11,0,6.28,1.59,6.28,4.56v9.81c0,.83.51,1.31,1.43,1.31.16,0,.29,0,.57-.06v2.01ZM382.95,28.99c-.89.41-1.43.54-4.27.92-2.87.41-4.01,1.31-4.01,3.06s1.21,2.68,3.28,2.68c1.56,0,2.87-.51,3.95-1.5.8-.73,1.05-1.27,1.05-2.17v-2.99Z"/>
        <path class="cls-1" d="M393.11,37.24h-2.68V14.02h2.68v23.23Z"/>
        <path class="cls-1" d="M101.48,60.55l-2.45,6.98h-3.15l8.28-23.23h3.82l8.16,23.23h-3.31l-2.39-6.98h-8.95ZM106.04,47.49l-3.82,10.58h7.39l-3.57-10.58Z"/>
        <path class="cls-1" d="M129.21,67.53v-2.33c-1.56,2.2-3.12,3.06-5.58,3.06-3.25,0-5.32-1.78-5.32-4.56v-12.87h2.64v11.82c0,2.01,1.34,3.28,3.44,3.28,2.77,0,4.56-2.23,4.56-5.64v-9.46h2.64v16.69h-2.39Z"/>
        <path class="cls-1" d="M142.05,53h-2.74v11.44c0,1.18.32,1.5,1.47,1.5.54,0,.89-.03,1.27-.13v2.23c-.89.16-1.47.22-2.17.22-2.07,0-3.22-.92-3.22-2.64v-12.62h-2.26v-2.17h2.26v-4.59h2.64v4.59h2.74v2.17Z"/>
        <path class="cls-1" d="M158.68,59.44c0,5.48-2.84,8.83-7.55,8.83s-7.55-3.31-7.55-8.95,2.8-8.95,7.52-8.95,7.58,3.28,7.58,9.08ZM146.35,59.31c0,4.05,1.82,6.5,4.78,6.5s4.78-2.45,4.78-6.4-1.78-6.59-4.78-6.59-4.78,2.45-4.78,6.5ZM155.53,43.96l-4.75,4.71h-1.91l3.06-4.71h3.6Z"/>
        <path class="cls-1" d="M164.83,50.84v2.8c1.47-2.33,3.06-3.28,5.54-3.28,3.22,0,5.29,1.78,5.29,4.56v12.62h-2.64v-11.57c0-2.01-1.34-3.28-3.44-3.28-2.74,0-4.52,2.23-4.52,5.64v9.21h-2.68v-16.69h2.45Z"/>
        <path class="cls-1" d="M194.11,59.44c0,5.48-2.84,8.83-7.55,8.83s-7.55-3.31-7.55-8.95,2.8-8.95,7.52-8.95,7.58,3.28,7.58,9.08ZM181.78,59.31c0,4.05,1.82,6.5,4.78,6.5s4.78-2.45,4.78-6.4-1.78-6.59-4.78-6.59-4.78,2.45-4.78,6.5Z"/>
        <path class="cls-1" d="M200.27,50.84v2.36c1.4-2.01,2.9-2.84,5.13-2.84s3.5.76,4.49,2.55c1.56-1.88,2.9-2.55,5.13-2.55,3.12,0,4.84,1.66,4.84,4.65v12.52h-2.68v-11.5c0-2.1-1.15-3.35-3.09-3.35-2.17,0-3.92,1.94-3.92,4.37v10.48h-2.68v-11.5c0-2.13-1.12-3.35-3.09-3.35-2.17,0-3.92,1.94-3.92,4.37v10.48h-2.68v-16.69h2.45Z"/>
        <path class="cls-1" d="M239.17,67.98c-.89.22-1.24.29-1.82.29-1.72,0-2.55-.73-2.74-2.45-1.88,1.72-3.57,2.45-5.67,2.45-3.38,0-5.48-1.91-5.48-4.94,0-2.17.99-3.63,2.93-4.46,1.02-.41,1.59-.54,5.35-1.02,2.17-.29,2.74-.7,2.77-1.85v-.7c0-1.59-1.31-2.48-3.73-2.48s-3.7.92-3.92,2.96h-2.68c.06-1.66.38-2.61,1.15-3.47,1.15-1.24,3.09-1.94,5.54-1.94,4.11,0,6.28,1.59,6.28,4.56v9.81c0,.83.51,1.31,1.43,1.31.16,0,.29,0,.57-.06v2.01ZM234.52,59.28c-.89.41-1.43.54-4.27.92-2.87.41-4.01,1.31-4.01,3.06s1.21,2.68,3.28,2.68c1.56,0,2.87-.51,3.95-1.5.8-.73,1.05-1.27,1.05-2.17v-2.99Z"/>
        <path class="cls-1" d="M264.47,67.53h-2.36v-2.2c-1.43,2.07-3.03,2.93-5.32,2.93-4.52,0-7.26-3.47-7.26-9.11,0-5.32,2.84-8.79,7.17-8.79,2.23,0,4.01.89,5.13,2.58v-8.63h2.64v23.23ZM252.3,59.31c0,3.89,1.94,6.47,4.87,6.47s4.65-2.55,4.65-6.4-1.82-6.53-4.68-6.53-4.84,2.58-4.84,6.47Z"/>
        <path class="cls-1" d="M270.47,60.08c.03,1.66.25,2.61.89,3.57.89,1.4,2.33,2.17,4.01,2.17,2.13,0,3.63-1.15,4.36-3.35h2.68c-.67,3.63-3.31,5.8-7.14,5.8-4.72,0-7.58-3.35-7.58-8.86s2.99-9.05,7.65-9.05c3.12,0,5.67,1.66,6.75,4.4.48,1.24.67,2.77.67,5.32h-12.3ZM279.9,57.91c0-2.99-1.88-5.1-4.59-5.1s-4.56,2.01-4.78,5.1h9.37Z"/>
        <path class="cls-1" d="M304.78,67.53l-6.6-19.47v19.47h-2.8v-23.23h4.11l6.88,20.23,6.75-20.23h4.11v23.23h-2.8v-19.47l-6.53,19.47h-3.12Z"/>
        <path class="cls-1" d="M323.58,60.08c.03,1.66.25,2.61.89,3.57.89,1.4,2.33,2.17,4.01,2.17,2.13,0,3.63-1.15,4.36-3.35h2.68c-.67,3.63-3.31,5.8-7.14,5.8-4.72,0-7.58-3.35-7.58-8.86s2.99-9.05,7.65-9.05c3.12,0,5.67,1.66,6.75,4.4.48,1.24.67,2.77.67,5.32h-12.3ZM333.02,57.91c0-2.99-1.88-5.1-4.59-5.1s-4.56,2.01-4.78,5.1h9.37ZM332.95,43.96l-4.75,4.71h-1.91l3.06-4.71h3.6Z"/>
        <path class="cls-1" d="M352.33,67.53h-3.09l-4.17-6.4-4.24,6.4h-3.03l5.89-8.51-5.58-8.19h3.03l4.01,6.05,4.01-6.05h2.99l-5.61,8.06,5.77,8.63Z"/>
        <path class="cls-1" d="M357.97,47.65h-2.68v-3.35h2.68v3.35ZM357.97,67.53h-2.64v-16.69h2.64v16.69Z"/>
        <path class="cls-1" d="M372.59,56.44c-.32-2.33-1.72-3.63-3.95-3.63-2.9,0-4.62,2.48-4.62,6.66,0,3.95,1.75,6.34,4.68,6.34,2.26,0,3.63-1.34,4.08-4.01h2.68c-.32,4.08-2.84,6.47-6.82,6.47-4.52,0-7.39-3.41-7.39-8.79s2.9-9.11,7.42-9.11c2.33,0,4.33.92,5.48,2.49.64.92.99,1.98,1.12,3.6h-2.68Z"/>
        <path class="cls-1" d="M392.7,59.44c0,5.48-2.84,8.83-7.55,8.83s-7.55-3.31-7.55-8.95,2.8-8.95,7.52-8.95,7.58,3.28,7.58,9.08ZM380.37,59.31c0,4.05,1.82,6.5,4.78,6.5s4.78-2.45,4.78-6.4-1.78-6.59-4.78-6.59-4.78,2.45-4.78,6.5Z"/>
      </g>
    </g>
  </g>
</svg>